<svg width="500" height="773" viewBox="0 0 500 773" fill="none" xmlns="http://www.w3.org/2000/svg">
<rect width="500" height="772.727" rx="32" fill="#3E3E3E"/>
<path d="M70.8414 411.345H56.3094V408.909H87.9774V411.345H73.6134V471.909H70.8414V411.345ZM90.922 425.457C90.138 425.457 89.438 425.177 88.822 424.617C88.262 424.057 87.982 423.357 87.982 422.517C87.982 421.733 88.262 421.061 88.822 420.501C89.438 419.941 90.138 419.661 90.922 419.661C91.706 419.661 92.378 419.941 92.938 420.501C93.554 421.061 93.862 421.733 93.862 422.517C93.862 423.357 93.554 424.057 92.938 424.617C92.378 425.177 91.706 425.457 90.922 425.457ZM89.578 434.109H92.266V471.909H89.578V434.109ZM122.599 472.833C119.015 472.833 115.683 471.937 112.603 470.145C109.523 468.353 107.087 465.945 105.295 462.921C103.503 459.841 102.607 456.537 102.607 453.009C102.607 449.481 103.503 446.205 105.295 443.181C107.087 440.101 109.523 437.665 112.603 435.873C115.683 434.081 119.015 433.185 122.599 433.185C126.239 433.185 129.683 434.165 132.931 436.125C136.179 438.029 138.447 440.521 139.735 443.601V434.109H142.423V471.909H139.735V462.501C138.223 465.637 135.871 468.157 132.679 470.061C129.543 471.909 126.183 472.833 122.599 472.833ZM122.767 470.481C125.847 470.481 128.703 469.697 131.335 468.129C133.967 466.505 136.039 464.377 137.551 461.745C139.119 459.057 139.903 456.145 139.903 453.009C139.903 449.929 139.119 447.045 137.551 444.357C135.983 441.669 133.883 439.541 131.251 437.973C128.619 436.349 125.763 435.537 122.683 435.537C119.603 435.537 116.719 436.349 114.031 437.973C111.399 439.597 109.271 441.753 107.647 444.441C106.079 447.129 105.295 450.013 105.295 453.093C105.295 456.173 106.079 459.057 107.647 461.745C109.271 464.377 111.427 466.505 114.115 468.129C116.803 469.697 119.687 470.481 122.767 470.481ZM171.253 489.381C168.061 489.381 164.953 488.653 161.929 487.197C158.905 485.741 156.553 483.837 154.873 481.485V477.621C156.329 480.309 158.597 482.549 161.677 484.341C164.813 486.133 168.005 487.029 171.253 487.029C176.629 487.029 180.773 485.433 183.685 482.241C186.597 479.105 188.053 474.485 188.053 468.381V462.753C186.541 465.777 184.161 468.241 180.913 470.145C177.721 471.993 174.361 472.917 170.833 472.917C167.249 472.917 163.917 472.021 160.837 470.229C157.757 468.437 155.321 466.029 153.529 463.005C151.737 459.925 150.841 456.621 150.841 453.093C150.841 449.565 151.737 446.289 153.529 443.265C155.321 440.185 157.757 437.749 160.837 435.957C163.917 434.165 167.249 433.269 170.833 433.269C174.529 433.269 177.945 434.193 181.081 436.041C184.217 437.889 186.541 440.381 188.053 443.517V434.109H190.741V468.381C190.741 475.269 189.061 480.477 185.701 484.005C182.397 487.589 177.581 489.381 171.253 489.381ZM171.001 470.565C174.081 470.565 176.937 469.781 179.569 468.213C182.201 466.589 184.273 464.461 185.785 461.829C187.353 459.141 188.137 456.229 188.137 453.093C188.137 449.957 187.353 447.073 185.785 444.441C184.273 441.753 182.201 439.625 179.569 438.057C176.937 436.433 174.081 435.621 171.001 435.621C167.865 435.621 164.953 436.433 162.265 438.057C159.633 439.625 157.505 441.753 155.881 444.441C154.313 447.073 153.529 449.957 153.529 453.093C153.529 456.229 154.313 459.141 155.881 461.829C157.505 464.461 159.633 466.589 162.265 468.213C164.953 469.781 167.865 470.565 171.001 470.565ZM219.317 473.253C215.509 473.253 212.065 472.329 208.985 470.481C205.905 468.577 203.497 466.085 201.761 463.005C200.025 459.869 199.157 456.481 199.157 452.841C199.157 449.257 200.025 445.925 201.761 442.845C203.553 439.765 205.961 437.329 208.985 435.537C212.065 433.689 215.481 432.765 219.233 432.765C222.929 432.765 226.289 433.689 229.313 435.537C232.393 437.329 234.801 439.765 236.537 442.845C238.273 445.925 239.141 449.257 239.141 452.841C239.141 456.593 238.301 460.037 236.621 463.173C234.941 466.253 232.589 468.717 229.565 470.565C226.597 472.357 223.181 473.253 219.317 473.253ZM219.317 470.901C222.509 470.901 225.421 470.089 228.053 468.465C230.685 466.841 232.729 464.685 234.185 461.997C235.697 459.253 236.453 456.257 236.453 453.009C236.453 449.817 235.697 446.849 234.185 444.105C232.673 441.361 230.601 439.177 227.969 437.553C225.337 435.929 222.425 435.117 219.233 435.117C216.041 435.117 213.101 435.957 210.413 437.637C207.781 439.261 205.681 441.445 204.113 444.189C202.601 446.933 201.845 449.901 201.845 453.093C201.845 456.285 202.601 459.253 204.113 461.997C205.681 464.685 207.781 466.841 210.413 468.465C213.101 470.089 216.069 470.901 219.317 470.901ZM267.326 408.909H270.098V469.473H289.586V471.909H267.326V408.909ZM299.938 425.457C299.154 425.457 298.454 425.177 297.838 424.617C297.278 424.057 296.998 423.357 296.998 422.517C296.998 421.733 297.278 421.061 297.838 420.501C298.454 419.941 299.154 419.661 299.938 419.661C300.722 419.661 301.394 419.941 301.954 420.501C302.57 421.061 302.878 421.733 302.878 422.517C302.878 423.357 302.57 424.057 301.954 424.617C301.394 425.177 300.722 425.457 299.938 425.457ZM298.594 434.109H301.282V471.909H298.594V434.109ZM313.806 434.109H316.494V439.821C319.07 435.397 323.214 433.185 328.926 433.185C331.67 433.185 334.05 433.969 336.066 435.537C338.082 437.049 339.482 439.345 340.266 442.425C340.994 439.681 342.59 437.469 345.054 435.789C347.574 434.053 350.402 433.185 353.538 433.185C357.626 433.185 360.79 434.389 363.03 436.797C365.27 439.149 366.39 442.509 366.39 446.877V471.909H363.702V446.877C363.702 443.349 362.778 440.577 360.93 438.561C359.138 436.545 356.758 435.537 353.79 435.537C351.55 435.537 349.478 436.097 347.574 437.217C345.67 438.281 344.158 439.737 343.038 441.585C341.918 443.433 341.358 445.477 341.358 447.717V471.909H338.67V448.389C338.67 444.357 337.718 441.221 335.814 438.981C333.91 436.685 331.446 435.537 328.422 435.537C326.406 435.537 324.474 436.041 322.626 437.049C320.834 438.057 319.35 439.429 318.174 441.165C317.054 442.845 316.494 444.693 316.494 446.709V471.909H313.806V434.109ZM394.778 472.833C391.194 472.833 387.862 471.937 384.782 470.145C381.702 468.353 379.266 465.945 377.474 462.921C375.682 459.841 374.786 456.537 374.786 453.009C374.786 449.481 375.682 446.205 377.474 443.181C379.266 440.101 381.702 437.665 384.782 435.873C387.862 434.081 391.194 433.185 394.778 433.185C398.418 433.185 401.862 434.165 405.11 436.125C408.358 438.029 410.626 440.521 411.914 443.601V434.109H414.602V471.909H411.914V462.501C410.402 465.637 408.05 468.157 404.858 470.061C401.722 471.909 398.362 472.833 394.778 472.833ZM394.946 470.481C398.026 470.481 400.882 469.697 403.514 468.129C406.146 466.505 408.218 464.377 409.73 461.745C411.298 459.057 412.082 456.145 412.082 453.009C412.082 449.929 411.298 447.045 409.73 444.357C408.162 441.669 406.062 439.541 403.43 437.973C400.798 436.349 397.942 435.537 394.862 435.537C391.782 435.537 388.898 436.349 386.21 437.973C383.578 439.597 381.45 441.753 379.826 444.441C378.258 447.129 377.474 450.013 377.474 453.093C377.474 456.173 378.258 459.057 379.826 461.745C381.45 464.377 383.606 466.505 386.294 468.129C388.982 469.697 391.866 470.481 394.946 470.481Z" fill="white"/>
<path d="M102.459 558.644C100.639 558.644 98.9591 558.196 97.4191 557.3C95.9071 556.404 94.7031 555.2 93.8071 553.688C92.9111 552.176 92.4631 550.524 92.4631 548.732C92.4631 546.94 92.9111 545.288 93.8071 543.776C94.7031 542.264 95.9071 541.06 97.4191 540.164C98.9591 539.268 100.639 538.82 102.459 538.82C104.223 538.82 105.903 539.296 107.499 540.248C109.095 541.172 110.271 542.39 111.027 543.902V526.682H112.371V558.182H111.027V553.604C110.187 555.116 108.969 556.334 107.373 557.258C105.805 558.182 104.167 558.644 102.459 558.644ZM102.417 557.468C103.957 557.468 105.385 557.076 106.701 556.292C108.045 555.48 109.109 554.416 109.893 553.1C110.705 551.756 111.111 550.314 111.111 548.774C111.111 547.234 110.705 545.792 109.893 544.448C109.109 543.104 108.045 542.026 106.701 541.214C105.385 540.402 103.957 539.996 102.417 539.996C100.877 539.996 99.4491 540.402 98.1331 541.214C96.8171 541.998 95.7671 543.062 94.9831 544.406C94.1991 545.75 93.8071 547.192 93.8071 548.732C93.8071 550.3 94.1851 551.756 94.9411 553.1C95.7251 554.416 96.7751 555.48 98.0911 556.292C99.4351 557.076 100.877 557.468 102.417 557.468ZM126.87 557.51C128.326 557.51 129.712 557.132 131.028 556.376C132.344 555.62 133.436 554.584 134.304 553.268V555.41C133.268 556.558 132.134 557.398 130.902 557.93C129.67 558.434 128.27 558.686 126.702 558.686C124.966 558.686 123.328 558.224 121.788 557.3C120.276 556.376 119.058 555.144 118.134 553.604C117.238 552.064 116.79 550.426 116.79 548.69C116.79 546.814 117.238 545.134 118.134 543.65C119.03 542.138 120.248 540.962 121.788 540.122C123.356 539.282 125.092 538.862 126.996 538.862C129.908 538.862 132.386 540.01 134.43 542.306L121.242 555.326C122.166 556.082 123.062 556.642 123.93 557.006C124.798 557.342 125.778 557.51 126.87 557.51ZM118.134 548.564C118.134 550.888 118.904 552.876 120.444 554.528L132.75 542.306C131.826 541.494 130.93 540.92 130.062 540.584C129.194 540.22 128.158 540.038 126.954 540.038C125.246 540.038 123.72 540.416 122.376 541.172C121.06 541.9 120.024 542.908 119.268 544.196C118.512 545.484 118.134 546.94 118.134 548.564ZM130.65 531.134H132.372L126.534 535.964H124.77L130.65 531.134ZM154.391 539.282L145.109 558.728L135.785 539.282H137.255L145.109 555.662L152.921 539.282H154.391ZM165.63 557.51C167.086 557.51 168.472 557.132 169.788 556.376C171.104 555.62 172.196 554.584 173.064 553.268V555.41C172.028 556.558 170.894 557.398 169.662 557.93C168.43 558.434 167.03 558.686 165.462 558.686C163.726 558.686 162.088 558.224 160.548 557.3C159.036 556.376 157.818 555.144 156.894 553.604C155.998 552.064 155.55 550.426 155.55 548.69C155.55 546.814 155.998 545.134 156.894 543.65C157.79 542.138 159.008 540.962 160.548 540.122C162.116 539.282 163.852 538.862 165.756 538.862C168.668 538.862 171.146 540.01 173.19 542.306L160.002 555.326C160.926 556.082 161.822 556.642 162.69 557.006C163.558 557.342 164.538 557.51 165.63 557.51ZM156.894 548.564C156.894 550.888 157.664 552.876 159.204 554.528L171.51 542.306C170.586 541.494 169.69 540.92 168.822 540.584C167.954 540.22 166.918 540.038 165.714 540.038C164.006 540.038 162.48 540.416 161.136 541.172C159.82 541.9 158.784 542.908 158.028 544.196C157.272 545.484 156.894 546.94 156.894 548.564ZM184.573 558.56C183.257 558.56 182.053 558.266 180.961 557.678C179.869 557.062 179.001 556.208 178.357 555.116C177.713 554.024 177.391 552.806 177.391 551.462V526.682H178.735V551.462C178.735 552.582 178.987 553.59 179.491 554.486C180.023 555.382 180.737 556.096 181.633 556.628C182.529 557.132 183.509 557.384 184.573 557.384V558.56ZM196.633 558.854C194.729 558.854 193.007 558.392 191.467 557.468C189.927 556.516 188.723 555.27 187.855 553.73C186.987 552.162 186.553 550.468 186.553 548.648C186.553 546.856 186.987 545.19 187.855 543.65C188.751 542.11 189.955 540.892 191.467 539.996C193.007 539.072 194.715 538.61 196.591 538.61C198.439 538.61 200.119 539.072 201.631 539.996C203.171 540.892 204.375 542.11 205.243 543.65C206.111 545.19 206.545 546.856 206.545 548.648C206.545 550.524 206.125 552.246 205.285 553.814C204.445 555.354 203.269 556.586 201.757 557.51C200.273 558.406 198.565 558.854 196.633 558.854ZM196.633 557.678C198.229 557.678 199.685 557.272 201.001 556.46C202.317 555.648 203.339 554.57 204.067 553.226C204.823 551.854 205.201 550.356 205.201 548.732C205.201 547.136 204.823 545.652 204.067 544.28C203.311 542.908 202.275 541.816 200.959 541.004C199.643 540.192 198.187 539.786 196.591 539.786C194.995 539.786 193.525 540.206 192.181 541.046C190.865 541.858 189.815 542.95 189.031 544.322C188.275 545.694 187.897 547.178 187.897 548.774C187.897 550.37 188.275 551.854 189.031 553.226C189.815 554.57 190.865 555.648 192.181 556.46C193.525 557.272 195.009 557.678 196.633 557.678ZM210.737 539.282H212.081V543.902C212.837 542.39 214.013 541.172 215.609 540.248C217.205 539.296 218.885 538.82 220.649 538.82C222.469 538.82 224.135 539.268 225.647 540.164C227.187 541.06 228.405 542.264 229.301 543.776C230.197 545.288 230.645 546.94 230.645 548.732C230.645 550.524 230.197 552.176 229.301 553.688C228.405 555.2 227.187 556.404 225.647 557.3C224.135 558.196 222.469 558.644 220.649 558.644C218.941 558.644 217.289 558.182 215.693 557.258C214.125 556.334 212.921 555.116 212.081 553.604V566.582H210.737V539.282ZM220.733 557.468C222.273 557.468 223.701 557.076 225.017 556.292C226.333 555.48 227.369 554.416 228.125 553.1C228.909 551.756 229.301 550.3 229.301 548.732C229.301 547.192 228.909 545.75 228.125 544.406C227.341 543.062 226.291 541.998 224.975 541.214C223.659 540.402 222.231 539.996 220.691 539.996C219.151 539.996 217.709 540.402 216.365 541.214C215.049 542.026 213.985 543.104 213.173 544.448C212.389 545.792 211.997 547.234 211.997 548.774C211.997 550.314 212.389 551.756 213.173 553.1C213.985 554.416 215.063 555.48 216.407 556.292C217.751 557.076 219.193 557.468 220.733 557.468ZM234.854 539.282H236.198V543.902C236.954 542.39 238.13 541.172 239.726 540.248C241.322 539.296 243.002 538.82 244.766 538.82C246.586 538.82 248.252 539.268 249.764 540.164C251.304 541.06 252.522 542.264 253.418 543.776C254.314 545.288 254.762 546.94 254.762 548.732C254.762 550.524 254.314 552.176 253.418 553.688C252.522 555.2 251.304 556.404 249.764 557.3C248.252 558.196 246.586 558.644 244.766 558.644C243.058 558.644 241.406 558.182 239.81 557.258C238.242 556.334 237.038 555.116 236.198 553.604V566.582H234.854V539.282ZM244.85 557.468C246.39 557.468 247.818 557.076 249.134 556.292C250.45 555.48 251.486 554.416 252.242 553.1C253.026 551.756 253.418 550.3 253.418 548.732C253.418 547.192 253.026 545.75 252.242 544.406C251.458 543.062 250.408 541.998 249.092 541.214C247.776 540.402 246.348 539.996 244.808 539.996C243.268 539.996 241.826 540.402 240.482 541.214C239.166 542.026 238.102 543.104 237.29 544.448C236.506 545.792 236.114 547.234 236.114 548.774C236.114 550.314 236.506 551.756 237.29 553.1C238.102 554.416 239.18 555.48 240.524 556.292C241.868 557.076 243.31 557.468 244.85 557.468ZM268.169 557.51C269.625 557.51 271.011 557.132 272.327 556.376C273.643 555.62 274.735 554.584 275.603 553.268V555.41C274.567 556.558 273.433 557.398 272.201 557.93C270.969 558.434 269.569 558.686 268.001 558.686C266.265 558.686 264.627 558.224 263.087 557.3C261.575 556.376 260.357 555.144 259.433 553.604C258.537 552.064 258.089 550.426 258.089 548.69C258.089 546.814 258.537 545.134 259.433 543.65C260.329 542.138 261.547 540.962 263.087 540.122C264.655 539.282 266.391 538.862 268.295 538.862C271.207 538.862 273.685 540.01 275.729 542.306L262.541 555.326C263.465 556.082 264.361 556.642 265.229 557.006C266.097 557.342 267.077 557.51 268.169 557.51ZM259.433 548.564C259.433 550.888 260.203 552.876 261.743 554.528L274.049 542.306C273.125 541.494 272.229 540.92 271.361 540.584C270.493 540.22 269.457 540.038 268.253 540.038C266.545 540.038 265.019 540.416 263.675 541.172C262.359 541.9 261.323 542.908 260.567 544.196C259.811 545.484 259.433 546.94 259.433 548.564ZM288.246 558.644C285.586 558.644 283.528 557.916 282.072 556.46C280.644 555.004 279.93 552.946 279.93 550.286V539.282H281.274V550.286C281.274 552.582 281.876 554.36 283.08 555.62C284.312 556.852 286.034 557.468 288.246 557.468C289.59 557.468 290.822 557.174 291.942 556.586C293.062 555.97 293.944 555.116 294.588 554.024C295.232 552.932 295.554 551.686 295.554 550.286V539.282H296.898V558.182H295.554V554.654C294.91 555.83 293.944 556.796 292.656 557.552C291.368 558.28 289.898 558.644 288.246 558.644ZM302.202 539.282H303.546V543.65C304.106 542.278 304.918 541.2 305.982 540.416C307.074 539.632 308.306 539.24 309.678 539.24C310.546 539.24 311.428 539.422 312.324 539.786V541.34C311.512 540.724 310.602 540.416 309.594 540.416C308.586 540.416 307.606 540.724 306.654 541.34C305.73 541.956 304.974 542.782 304.386 543.818C303.826 544.854 303.546 545.96 303.546 547.136V558.182H302.202V539.282ZM340.129 558.644L335.845 549.488L331.519 558.644L322.447 539.282H323.833L331.561 555.704L335.215 548.018L331.183 539.366H332.527L335.887 546.674L339.331 539.282H340.675L336.559 548.06L340.129 555.746L347.731 539.324H349.075L340.129 558.644ZM360.29 557.51C361.746 557.51 363.132 557.132 364.448 556.376C365.764 555.62 366.856 554.584 367.724 553.268V555.41C366.688 556.558 365.554 557.398 364.322 557.93C363.09 558.434 361.69 558.686 360.122 558.686C358.386 558.686 356.748 558.224 355.208 557.3C353.696 556.376 352.478 555.144 351.554 553.604C350.658 552.064 350.21 550.426 350.21 548.69C350.21 546.814 350.658 545.134 351.554 543.65C352.45 542.138 353.668 540.962 355.208 540.122C356.776 539.282 358.512 538.862 360.416 538.862C363.328 538.862 365.806 540.01 367.85 542.306L354.662 555.326C355.586 556.082 356.482 556.642 357.35 557.006C358.218 557.342 359.198 557.51 360.29 557.51ZM351.554 548.564C351.554 550.888 352.324 552.876 353.864 554.528L366.17 542.306C365.246 541.494 364.35 540.92 363.482 540.584C362.614 540.22 361.578 540.038 360.374 540.038C358.666 540.038 357.14 540.416 355.796 541.172C354.48 541.9 353.444 542.908 352.688 544.196C351.932 545.484 351.554 546.94 351.554 548.564ZM381.963 558.644C380.255 558.644 378.603 558.182 377.007 557.258C375.439 556.334 374.235 555.116 373.395 553.604V558.182H372.051V526.682H373.395V544.07C374.151 542.474 375.327 541.2 376.923 540.248C378.519 539.296 380.199 538.82 381.963 538.82C383.783 538.82 385.449 539.268 386.961 540.164C388.501 541.06 389.719 542.264 390.615 543.776C391.511 545.288 391.959 546.94 391.959 548.732C391.959 550.524 391.511 552.176 390.615 553.688C389.719 555.2 388.501 556.404 386.961 557.3C385.449 558.196 383.783 558.644 381.963 558.644ZM382.047 557.468C383.587 557.468 385.015 557.076 386.331 556.292C387.647 555.48 388.683 554.416 389.439 553.1C390.223 551.756 390.615 550.3 390.615 548.732C390.615 547.192 390.223 545.75 389.439 544.406C388.655 543.062 387.605 541.998 386.289 541.214C384.973 540.402 383.545 539.996 382.005 539.996C380.465 539.996 379.023 540.402 377.679 541.214C376.363 542.026 375.299 543.104 374.487 544.448C373.703 545.792 373.311 547.234 373.311 548.774C373.311 550.314 373.703 551.756 374.487 553.1C375.299 554.416 376.377 555.48 377.721 556.292C379.065 557.076 380.507 557.468 382.047 557.468Z" fill="white"/>
<path d="M184.336 703.396L180.664 695.548L176.956 703.396L169.18 686.8H170.368L176.992 700.876L180.124 694.288L176.668 686.872H177.82L180.7 693.136L183.652 686.8H184.804L181.276 694.324L184.336 700.912L190.852 686.836H192.004L184.336 703.396ZM207.504 703.396L203.832 695.548L200.124 703.396L192.348 686.8H193.536L200.16 700.876L203.292 694.288L199.836 686.872H200.988L203.868 693.136L206.82 686.8H207.972L204.444 694.324L207.504 700.912L214.02 686.836H215.172L207.504 703.396ZM230.672 703.396L227 695.548L223.292 703.396L215.516 686.8H216.704L223.328 700.876L226.46 694.288L223.004 686.872H224.156L227.036 693.136L229.988 686.8H231.14L227.612 694.324L230.672 700.912L237.188 686.836H238.34L230.672 703.396ZM237.156 703.324C236.82 703.324 236.52 703.204 236.256 702.964C236.016 702.724 235.896 702.424 235.896 702.064C235.896 701.728 236.016 701.44 236.256 701.2C236.52 700.96 236.82 700.84 237.156 700.84C237.492 700.84 237.78 700.96 238.02 701.2C238.284 701.44 238.416 701.728 238.416 702.064C238.416 702.424 238.284 702.724 238.02 702.964C237.78 703.204 237.492 703.324 237.156 703.324ZM247.728 703.216C245.952 703.216 244.476 702.676 243.3 701.596C242.148 700.516 241.572 699.028 241.572 697.132V680.284H242.724V686.8H247.692V687.808H242.724V697.132C242.724 698.716 243.192 699.964 244.128 700.876C245.088 701.764 246.288 702.208 247.728 702.208V703.216ZM256.912 703.324C255.784 703.324 254.752 703.072 253.816 702.568C252.88 702.04 252.136 701.308 251.584 700.372C251.032 699.436 250.756 698.392 250.756 697.24V676H251.908V697.24C251.908 698.2 252.124 699.064 252.556 699.832C253.012 700.6 253.624 701.212 254.392 701.668C255.16 702.1 256 702.316 256.912 702.316V703.324ZM262.039 683.092C261.703 683.092 261.403 682.972 261.139 682.732C260.899 682.492 260.779 682.192 260.779 681.832C260.779 681.496 260.899 681.208 261.139 680.968C261.403 680.728 261.703 680.608 262.039 680.608C262.375 680.608 262.663 680.728 262.903 680.968C263.167 681.208 263.299 681.496 263.299 681.832C263.299 682.192 263.167 682.492 262.903 682.732C262.663 682.972 262.375 683.092 262.039 683.092ZM261.463 686.8H262.615V703H261.463V686.8ZM267.983 686.8H269.135V689.248C270.239 687.352 272.015 686.404 274.463 686.404C275.639 686.404 276.659 686.74 277.523 687.412C278.387 688.06 278.987 689.044 279.323 690.364C279.635 689.188 280.319 688.24 281.375 687.52C282.455 686.776 283.667 686.404 285.011 686.404C286.763 686.404 288.119 686.92 289.079 687.952C290.039 688.96 290.519 690.4 290.519 692.272V703H289.367V692.272C289.367 690.76 288.971 689.572 288.179 688.708C287.411 687.844 286.391 687.412 285.119 687.412C284.159 687.412 283.271 687.652 282.455 688.132C281.639 688.588 280.991 689.212 280.511 690.004C280.031 690.796 279.791 691.672 279.791 692.632V703H278.639V692.92C278.639 691.192 278.231 689.848 277.415 688.888C276.599 687.904 275.543 687.412 274.247 687.412C273.383 687.412 272.555 687.628 271.763 688.06C270.995 688.492 270.359 689.08 269.855 689.824C269.375 690.544 269.135 691.336 269.135 692.2V703H267.983V686.8ZM302.685 703.396C301.149 703.396 299.721 703.012 298.401 702.244C297.081 701.476 296.037 700.444 295.269 699.148C294.501 697.828 294.117 696.412 294.117 694.9C294.117 693.388 294.501 691.984 295.269 690.688C296.037 689.368 297.081 688.324 298.401 687.556C299.721 686.788 301.149 686.404 302.685 686.404C304.245 686.404 305.721 686.824 307.113 687.664C308.505 688.48 309.477 689.548 310.029 690.868V686.8H311.181V703H310.029V698.968C309.381 700.312 308.373 701.392 307.005 702.208C305.661 703 304.221 703.396 302.685 703.396ZM302.757 702.388C304.077 702.388 305.301 702.052 306.429 701.38C307.557 700.684 308.445 699.772 309.093 698.644C309.765 697.492 310.101 696.244 310.101 694.9C310.101 693.58 309.765 692.344 309.093 691.192C308.421 690.04 307.521 689.128 306.393 688.456C305.265 687.76 304.041 687.412 302.721 687.412C301.401 687.412 300.165 687.76 299.013 688.456C297.885 689.152 296.973 690.076 296.277 691.228C295.605 692.38 295.269 693.616 295.269 694.936C295.269 696.256 295.605 697.492 296.277 698.644C296.973 699.772 297.897 700.684 299.049 701.38C300.201 702.052 301.437 702.388 302.757 702.388ZM315.941 703.324C315.605 703.324 315.305 703.204 315.041 702.964C314.801 702.724 314.681 702.424 314.681 702.064C314.681 701.728 314.801 701.44 315.041 701.2C315.305 700.96 315.605 700.84 315.941 700.84C316.277 700.84 316.565 700.96 316.805 701.2C317.069 701.44 317.201 701.728 317.201 702.064C317.201 702.424 317.069 702.724 316.805 702.964C316.565 703.204 316.277 703.324 315.941 703.324ZM326.873 681.04C325.961 681.04 325.121 681.268 324.353 681.724C323.585 682.156 322.973 682.768 322.517 683.56C322.085 684.328 321.869 685.18 321.869 686.116V686.8H326.873V687.808H321.869V703H320.717V686.116C320.717 684.988 320.981 683.968 321.509 683.056C322.061 682.12 322.805 681.388 323.741 680.86C324.701 680.308 325.745 680.032 326.873 680.032V681.04ZM329.928 686.8H331.08V690.544C331.56 689.368 332.256 688.444 333.168 687.772C334.104 687.1 335.16 686.764 336.336 686.764C337.08 686.764 337.836 686.92 338.604 687.232V688.564C337.908 688.036 337.128 687.772 336.264 687.772C335.4 687.772 334.56 688.036 333.744 688.564C332.952 689.092 332.304 689.8 331.8 690.688C331.32 691.576 331.08 692.524 331.08 693.532V703H329.928V686.8Z" fill="white"/>
<path d="M194.272 663.312C192.56 663.312 190.992 662.896 189.568 662.064C188.144 661.216 187.016 660.08 186.184 658.656C185.368 657.216 184.96 655.656 184.96 653.976C184.96 652.344 185.376 650.816 186.208 649.392C187.056 647.968 188.192 646.84 189.616 646.008C191.056 645.16 192.608 644.736 194.272 644.736C195.952 644.736 197.504 645.16 198.928 646.008C200.352 646.84 201.48 647.968 202.312 649.392C203.16 650.816 203.584 652.368 203.584 654.048C203.584 655.712 203.168 657.256 202.336 658.68C201.504 660.088 200.376 661.216 198.952 662.064C197.528 662.896 195.968 663.312 194.272 663.312ZM194.272 662.616C195.808 662.616 197.224 662.232 198.52 661.464C199.832 660.68 200.872 659.632 201.64 658.32C202.408 657.008 202.792 655.576 202.792 654.024C202.792 652.488 202.408 651.064 201.64 649.752C200.872 648.424 199.832 647.376 198.52 646.608C197.224 645.824 195.808 645.432 194.272 645.432C192.736 645.432 191.312 645.824 190 646.608C188.704 647.376 187.672 648.424 186.904 649.752C186.136 651.064 185.752 652.488 185.752 654.024C185.752 655.576 186.136 657.008 186.904 658.32C187.672 659.632 188.704 660.68 190 661.464C191.312 662.232 192.736 662.616 194.272 662.616ZM214.216 645.696H203.464V645H215.344L206.08 663H205.312L214.216 645.696ZM214.836 663.216C214.612 663.216 214.412 663.136 214.236 662.976C214.076 662.816 213.996 662.616 213.996 662.376C213.996 662.152 214.076 661.96 214.236 661.8C214.412 661.64 214.612 661.56 214.836 661.56C215.06 661.56 215.252 661.64 215.412 661.8C215.588 661.96 215.676 662.152 215.676 662.376C215.676 662.616 215.588 662.816 215.412 662.976C215.252 663.136 215.06 663.216 214.836 663.216ZM223.348 663.336C222.244 663.336 221.22 663.064 220.276 662.52C219.348 661.96 218.604 661.216 218.044 660.288C217.5 659.36 217.228 658.36 217.228 657.288C217.228 655.976 217.628 654.792 218.428 653.736C219.244 652.68 220.284 651.96 221.548 651.576C220.94 651.272 220.444 650.84 220.06 650.28C219.676 649.72 219.484 649.088 219.484 648.384C219.484 647.728 219.652 647.12 219.988 646.56C220.324 646 220.78 645.56 221.356 645.24C221.932 644.92 222.556 644.76 223.228 644.76C223.9 644.76 224.524 644.92 225.1 645.24C225.676 645.56 226.132 646 226.468 646.56C226.804 647.12 226.972 647.728 226.972 648.384C226.972 649.056 226.796 649.664 226.444 650.208C226.092 650.752 225.604 651.192 224.98 651.528C225.844 651.736 226.612 652.12 227.284 652.68C227.956 653.24 228.484 653.92 228.868 654.72C229.252 655.52 229.444 656.376 229.444 657.288C229.444 658.376 229.172 659.384 228.628 660.312C228.084 661.24 227.34 661.976 226.396 662.52C225.468 663.064 224.452 663.336 223.348 663.336ZM223.228 651.288C223.74 651.288 224.22 651.152 224.668 650.88C225.132 650.608 225.5 650.248 225.772 649.8C226.044 649.352 226.18 648.872 226.18 648.36C226.18 647.848 226.044 647.368 225.772 646.92C225.5 646.472 225.132 646.12 224.668 645.864C224.22 645.592 223.74 645.456 223.228 645.456C222.716 645.456 222.228 645.592 221.764 645.864C221.316 646.12 220.956 646.472 220.684 646.92C220.412 647.368 220.276 647.848 220.276 648.36C220.276 648.872 220.412 649.352 220.684 649.8C220.956 650.248 221.316 650.608 221.764 650.88C222.228 651.152 222.716 651.288 223.228 651.288ZM223.348 662.64C224.292 662.64 225.172 662.4 225.988 661.92C226.804 661.44 227.452 660.792 227.932 659.976C228.412 659.16 228.652 658.272 228.652 657.312C228.652 656.368 228.412 655.488 227.932 654.672C227.452 653.84 226.804 653.184 225.988 652.704C225.188 652.224 224.316 651.984 223.372 651.984C222.428 651.984 221.54 652.224 220.708 652.704C219.892 653.184 219.236 653.84 218.74 654.672C218.26 655.488 218.02 656.368 218.02 657.312C218.02 658.256 218.26 659.144 218.74 659.976C219.22 660.792 219.868 661.44 220.684 661.92C221.516 662.4 222.404 662.64 223.348 662.64ZM239.974 645.696H229.222V645H241.102L231.838 663H231.07L239.974 645.696ZM240.594 663.216C240.37 663.216 240.17 663.136 239.994 662.976C239.834 662.816 239.754 662.616 239.754 662.376C239.754 662.152 239.834 661.96 239.994 661.8C240.17 661.64 240.37 661.56 240.594 661.56C240.818 661.56 241.01 661.64 241.17 661.8C241.346 661.96 241.434 662.152 241.434 662.376C241.434 662.616 241.346 662.816 241.17 662.976C241.01 663.136 240.818 663.216 240.594 663.216ZM249.85 663.288C248.618 663.288 247.474 662.984 246.418 662.376C245.378 661.768 244.546 660.952 243.922 659.928C243.314 658.904 243.01 657.784 243.01 656.568C243.01 654.76 243.834 652.912 245.482 651.024L250.738 645H251.65L246.61 650.64C247.026 650.352 247.554 650.12 248.194 649.944C248.834 649.768 249.45 649.68 250.042 649.68C251.194 649.68 252.274 649.992 253.282 650.616C254.306 651.24 255.114 652.08 255.706 653.136C256.314 654.192 256.618 655.328 256.618 656.544C256.618 657.76 256.314 658.888 255.706 659.928C255.098 660.952 254.274 661.768 253.234 662.376C252.21 662.984 251.082 663.288 249.85 663.288ZM249.85 662.616C250.938 662.616 251.938 662.344 252.85 661.8C253.762 661.256 254.482 660.52 255.01 659.592C255.554 658.648 255.826 657.624 255.826 656.52C255.826 655.416 255.554 654.392 255.01 653.448C254.466 652.504 253.738 651.76 252.826 651.216C251.914 650.656 250.922 650.376 249.85 650.376C248.778 650.376 247.778 650.656 246.85 651.216C245.922 651.776 245.178 652.528 244.618 653.472C244.074 654.416 243.802 655.432 243.802 656.52C243.802 657.624 244.074 658.648 244.618 659.592C245.162 660.52 245.898 661.256 246.826 661.8C247.754 662.344 248.762 662.616 249.85 662.616ZM264.918 644.712C266.15 644.712 267.286 645.016 268.326 645.624C269.382 646.232 270.214 647.048 270.822 648.072C271.446 649.096 271.758 650.216 271.758 651.432C271.758 653.24 270.934 655.088 269.286 656.976L264.03 663H263.118L268.158 657.36C267.742 657.648 267.214 657.88 266.574 658.056C265.934 658.232 265.318 658.32 264.726 658.32C263.574 658.32 262.486 658.008 261.462 657.384C260.454 656.76 259.646 655.92 259.038 654.864C258.446 653.808 258.15 652.672 258.15 651.456C258.15 650.24 258.454 649.12 259.062 648.096C259.67 647.056 260.486 646.232 261.51 645.624C262.55 645.016 263.686 644.712 264.918 644.712ZM264.918 645.384C263.83 645.384 262.83 645.656 261.918 646.2C261.006 646.744 260.278 647.488 259.734 648.432C259.206 649.36 258.942 650.376 258.942 651.48C258.942 652.584 259.214 653.608 259.758 654.552C260.302 655.496 261.03 656.248 261.942 656.808C262.854 657.352 263.846 657.624 264.918 657.624C265.99 657.624 266.99 657.344 267.918 656.784C268.846 656.224 269.582 655.472 270.126 654.528C270.686 653.584 270.966 652.568 270.966 651.48C270.966 650.376 270.694 649.36 270.15 648.432C269.606 647.488 268.87 646.744 267.942 646.2C267.014 645.656 266.006 645.384 264.918 645.384ZM273.242 663.216C273.018 663.216 272.818 663.136 272.642 662.976C272.482 662.816 272.402 662.616 272.402 662.376C272.402 662.152 272.482 661.96 272.642 661.8C272.818 661.64 273.018 661.56 273.242 661.56C273.466 661.56 273.658 661.64 273.818 661.8C273.994 661.96 274.082 662.152 274.082 662.376C274.082 662.616 273.994 662.816 273.818 662.976C273.658 663.136 273.466 663.216 273.242 663.216ZM286.626 660.12V660.816H284.538V663H283.746V660.816H274.914L284.538 644.76V660.12H286.626ZM283.746 660.12V647.52L276.114 660.12H283.746ZM294.568 663.288C293.336 663.288 292.192 662.984 291.136 662.376C290.096 661.768 289.264 660.952 288.64 659.928C288.032 658.904 287.728 657.784 287.728 656.568C287.728 654.76 288.552 652.912 290.2 651.024L295.456 645H296.368L291.328 650.64C291.744 650.352 292.272 650.12 292.912 649.944C293.552 649.768 294.168 649.68 294.76 649.68C295.912 649.68 296.992 649.992 298 650.616C299.024 651.24 299.832 652.08 300.424 653.136C301.032 654.192 301.336 655.328 301.336 656.544C301.336 657.76 301.032 658.888 300.424 659.928C299.816 660.952 298.992 661.768 297.952 662.376C296.928 662.984 295.8 663.288 294.568 663.288ZM294.568 662.616C295.656 662.616 296.656 662.344 297.568 661.8C298.48 661.256 299.2 660.52 299.728 659.592C300.272 658.648 300.544 657.624 300.544 656.52C300.544 655.416 300.272 654.392 299.728 653.448C299.184 652.504 298.456 651.76 297.544 651.216C296.632 650.656 295.64 650.376 294.568 650.376C293.496 650.376 292.496 650.656 291.568 651.216C290.64 651.776 289.896 652.528 289.336 653.472C288.792 654.416 288.52 655.432 288.52 656.52C288.52 657.624 288.792 658.648 289.336 659.592C289.88 660.52 290.616 661.256 291.544 661.8C292.472 662.344 293.48 662.616 294.568 662.616ZM303.781 663.216C303.557 663.216 303.357 663.136 303.181 662.976C303.021 662.816 302.941 662.616 302.941 662.376C302.941 662.152 303.021 661.96 303.181 661.8C303.357 661.64 303.557 661.56 303.781 661.56C304.005 661.56 304.197 661.64 304.357 661.8C304.533 661.96 304.621 662.152 304.621 662.376C304.621 662.616 304.533 662.816 304.357 662.976C304.197 663.136 304.005 663.216 303.781 663.216ZM308.645 645.744H305.813V645.048H309.437V663H308.645V645.744ZM318.106 663.24C316.938 663.24 315.882 662.984 314.938 662.472C314.01 661.944 313.282 661.24 312.754 660.36C312.226 659.48 311.962 658.512 311.962 657.456V656.952H312.706V657.336C312.706 658.296 312.93 659.176 313.378 659.976C313.826 660.776 314.458 661.408 315.274 661.872C316.106 662.336 317.042 662.568 318.082 662.568C319.138 662.568 320.074 662.36 320.89 661.944C321.722 661.512 322.362 660.92 322.81 660.168C323.274 659.416 323.506 658.568 323.506 657.624C323.506 656.232 323.186 655.072 322.546 654.144C321.906 653.2 320.946 652.56 319.666 652.224C320.338 651.808 320.842 651.304 321.178 650.712C321.514 650.104 321.682 649.472 321.682 648.816C321.682 648.208 321.538 647.648 321.25 647.136C320.978 646.608 320.578 646.192 320.05 645.888C319.522 645.568 318.906 645.408 318.202 645.408C317.466 645.408 316.81 645.576 316.234 645.912C315.658 646.248 315.202 646.704 314.866 647.28C314.546 647.856 314.37 648.496 314.338 649.2H313.57C313.602 648.368 313.81 647.616 314.194 646.944C314.578 646.256 315.114 645.72 315.802 645.336C316.506 644.936 317.306 644.736 318.202 644.736C319.05 644.736 319.794 644.928 320.434 645.312C321.074 645.696 321.57 646.208 321.922 646.848C322.274 647.472 322.45 648.128 322.45 648.816C322.45 649.44 322.314 650.032 322.042 650.592C321.77 651.152 321.362 651.632 320.818 652.032C321.97 652.48 322.834 653.184 323.41 654.144C324.002 655.104 324.298 656.304 324.298 657.744C324.298 658.752 324.034 659.68 323.506 660.528C322.978 661.36 322.242 662.024 321.298 662.52C320.354 663 319.29 663.24 318.106 663.24Z" fill="white"/>
<path d="M52.4726 752.488C51.1046 752.488 49.7726 752.176 48.4766 751.552C47.1806 750.928 46.1726 750.112 45.4526 749.104V747.448C46.0766 748.6 47.0486 749.56 48.3686 750.328C49.7126 751.096 51.0806 751.48 52.4726 751.48C54.7766 751.48 56.5526 750.796 57.8006 749.428C59.0486 748.084 59.6726 746.104 59.6726 743.488V741.076C59.0246 742.372 58.0046 743.428 56.6126 744.244C55.2446 745.036 53.8046 745.432 52.2926 745.432C50.7566 745.432 49.3286 745.048 48.0086 744.28C46.6886 743.512 45.6446 742.48 44.8766 741.184C44.1086 739.864 43.7246 738.448 43.7246 736.936C43.7246 735.424 44.1086 734.02 44.8766 732.724C45.6446 731.404 46.6886 730.36 48.0086 729.592C49.3286 728.824 50.7566 728.44 52.2926 728.44C53.8766 728.44 55.3406 728.836 56.6846 729.628C58.0286 730.42 59.0246 731.488 59.6726 732.832V728.8H60.8246V743.488C60.8246 746.44 60.1046 748.672 58.6646 750.184C57.2486 751.72 55.1846 752.488 52.4726 752.488ZM52.3646 744.424C53.6846 744.424 54.9086 744.088 56.0366 743.416C57.1646 742.72 58.0526 741.808 58.7006 740.68C59.3726 739.528 59.7086 738.28 59.7086 736.936C59.7086 735.592 59.3726 734.356 58.7006 733.228C58.0526 732.076 57.1646 731.164 56.0366 730.492C54.9086 729.796 53.6846 729.448 52.3646 729.448C51.0206 729.448 49.7726 729.796 48.6206 730.492C47.4926 731.164 46.5806 732.076 45.8846 733.228C45.2126 734.356 44.8766 735.592 44.8766 736.936C44.8766 738.28 45.2126 739.528 45.8846 740.68C46.5806 741.808 47.4926 742.72 48.6206 743.416C49.7726 744.088 51.0206 744.424 52.3646 744.424ZM66.7716 725.092C66.4356 725.092 66.1356 724.972 65.8716 724.732C65.6316 724.492 65.5116 724.192 65.5116 723.832C65.5116 723.496 65.6316 723.208 65.8716 722.968C66.1356 722.728 66.4356 722.608 66.7716 722.608C67.1076 722.608 67.3956 722.728 67.6356 722.968C67.8996 723.208 68.0316 723.496 68.0316 723.832C68.0316 724.192 67.8996 724.492 67.6356 724.732C67.3956 724.972 67.1076 725.092 66.7716 725.092ZM66.1956 728.8H67.3476V745H66.1956V728.8ZM78.5113 745.216C76.7353 745.216 75.2593 744.676 74.0833 743.596C72.9313 742.516 72.3553 741.028 72.3553 739.132V722.284H73.5073V728.8H78.4753V729.808H73.5073V739.132C73.5073 740.716 73.9753 741.964 74.9113 742.876C75.8713 743.764 77.0713 744.208 78.5113 744.208V745.216ZM81.5395 718H82.6915V732.148C83.1955 731.068 84.0475 730.18 85.2475 729.484C86.4715 728.764 87.7075 728.404 88.9555 728.404C91.2355 728.404 92.9875 729.028 94.2115 730.276C95.4595 731.524 96.0835 733.288 96.0835 735.568V745H94.9315V735.568C94.9315 733.6 94.4035 732.088 93.3475 731.032C92.3155 729.952 90.8515 729.412 88.9555 729.412C87.8035 729.412 86.7475 729.688 85.7875 730.24C84.8275 730.768 84.0715 731.512 83.5195 732.472C82.9675 733.408 82.6915 734.44 82.6915 735.568V745H81.5395V718ZM107.757 745.396C105.477 745.396 103.713 744.772 102.465 743.524C101.241 742.276 100.629 740.512 100.629 738.232V728.8H101.781V738.232C101.781 740.2 102.297 741.724 103.329 742.804C104.385 743.86 105.861 744.388 107.757 744.388C108.909 744.388 109.965 744.136 110.925 743.632C111.885 743.104 112.641 742.372 113.193 741.436C113.745 740.5 114.021 739.432 114.021 738.232V728.8H115.173V745H114.021V741.976C113.469 742.984 112.641 743.812 111.537 744.46C110.433 745.084 109.173 745.396 107.757 745.396ZM128.215 745.396C126.751 745.396 125.335 745 123.967 744.208C122.623 743.416 121.591 742.372 120.871 741.076V745H119.719V718H120.871V732.904C121.519 731.536 122.527 730.444 123.895 729.628C125.263 728.812 126.703 728.404 128.215 728.404C129.775 728.404 131.203 728.788 132.499 729.556C133.819 730.324 134.863 731.356 135.631 732.652C136.399 733.948 136.783 735.364 136.783 736.9C136.783 738.436 136.399 739.852 135.631 741.148C134.863 742.444 133.819 743.476 132.499 744.244C131.203 745.012 129.775 745.396 128.215 745.396ZM128.287 744.388C129.607 744.388 130.831 744.052 131.959 743.38C133.087 742.684 133.975 741.772 134.623 740.644C135.295 739.492 135.631 738.244 135.631 736.9C135.631 735.58 135.295 734.344 134.623 733.192C133.951 732.04 133.051 731.128 131.923 730.456C130.795 729.76 129.571 729.412 128.251 729.412C126.931 729.412 125.695 729.76 124.543 730.456C123.415 731.152 122.503 732.076 121.807 733.228C121.135 734.38 120.799 735.616 120.799 736.936C120.799 738.256 121.135 739.492 121.807 740.644C122.503 741.772 123.427 742.684 124.579 743.38C125.731 744.052 126.967 744.388 128.287 744.388ZM140.607 745.324C140.271 745.324 139.971 745.204 139.707 744.964C139.467 744.724 139.347 744.424 139.347 744.064C139.347 743.728 139.467 743.44 139.707 743.2C139.971 742.96 140.271 742.84 140.607 742.84C140.943 742.84 141.231 742.96 141.471 743.2C141.735 743.44 141.867 743.728 141.867 744.064C141.867 744.424 141.735 744.724 141.471 744.964C141.231 745.204 140.943 745.324 140.607 745.324ZM153.015 745.468C151.455 745.468 150.015 745.096 148.695 744.352C147.399 743.608 146.367 742.588 145.599 741.292C144.831 739.996 144.447 738.532 144.447 736.9C144.447 735.388 144.831 733.996 145.599 732.724C146.367 731.428 147.411 730.396 148.731 729.628C150.075 728.86 151.551 728.476 153.159 728.476C154.503 728.476 155.655 728.692 156.615 729.124C157.575 729.556 158.511 730.228 159.423 731.14V733.084C158.631 731.908 157.743 731.02 156.759 730.42C155.799 729.796 154.599 729.484 153.159 729.484C151.839 729.484 150.591 729.832 149.415 730.528C148.263 731.2 147.339 732.112 146.643 733.264C145.947 734.416 145.599 735.652 145.599 736.972C145.599 738.412 145.935 739.708 146.607 740.86C147.279 741.988 148.179 742.876 149.307 743.524C150.459 744.148 151.695 744.46 153.015 744.46C155.703 744.46 157.839 743.248 159.423 740.824V742.768C158.559 743.68 157.599 744.364 156.543 744.82C155.511 745.252 154.335 745.468 153.015 745.468ZM170.665 745.576C169.033 745.576 167.557 745.18 166.237 744.388C164.917 743.572 163.885 742.504 163.141 741.184C162.397 739.84 162.025 738.388 162.025 736.828C162.025 735.292 162.397 733.864 163.141 732.544C163.909 731.224 164.941 730.18 166.237 729.412C167.557 728.62 169.021 728.224 170.629 728.224C172.213 728.224 173.653 728.62 174.949 729.412C176.269 730.18 177.301 731.224 178.045 732.544C178.789 733.864 179.161 735.292 179.161 736.828C179.161 738.436 178.801 739.912 178.081 741.256C177.361 742.576 176.353 743.632 175.057 744.424C173.785 745.192 172.321 745.576 170.665 745.576ZM170.665 744.568C172.033 744.568 173.281 744.22 174.409 743.524C175.537 742.828 176.413 741.904 177.037 740.752C177.685 739.576 178.009 738.292 178.009 736.9C178.009 735.532 177.685 734.26 177.037 733.084C176.389 731.908 175.501 730.972 174.373 730.276C173.245 729.58 171.997 729.232 170.629 729.232C169.261 729.232 168.001 729.592 166.849 730.312C165.721 731.008 164.821 731.944 164.149 733.12C163.501 734.296 163.177 735.568 163.177 736.936C163.177 738.304 163.501 739.576 164.149 740.752C164.821 741.904 165.721 742.828 166.849 743.524C168.001 744.22 169.273 744.568 170.665 744.568ZM182.403 728.8H183.555V731.248C184.659 729.352 186.435 728.404 188.883 728.404C190.059 728.404 191.079 728.74 191.943 729.412C192.807 730.06 193.407 731.044 193.743 732.364C194.055 731.188 194.739 730.24 195.795 729.52C196.875 728.776 198.087 728.404 199.431 728.404C201.183 728.404 202.539 728.92 203.499 729.952C204.459 730.96 204.939 732.4 204.939 734.272V745H203.787V734.272C203.787 732.76 203.391 731.572 202.599 730.708C201.831 729.844 200.811 729.412 199.539 729.412C198.579 729.412 197.691 729.652 196.875 730.132C196.059 730.588 195.411 731.212 194.931 732.004C194.451 732.796 194.211 733.672 194.211 734.632V745H193.059V734.92C193.059 733.192 192.651 731.848 191.835 730.888C191.019 729.904 189.963 729.412 188.667 729.412C187.803 729.412 186.975 729.628 186.183 730.06C185.415 730.492 184.779 731.08 184.275 731.824C183.795 732.544 183.555 733.336 183.555 734.2V745H182.403V728.8ZM227.257 718.072H228.661L208.537 745H207.205L227.257 718.072ZM236.714 745.216C234.938 745.216 233.462 744.676 232.286 743.596C231.134 742.516 230.558 741.028 230.558 739.132V722.284H231.71V728.8H236.678V729.808H231.71V739.132C231.71 740.716 232.178 741.964 233.114 742.876C234.074 743.764 235.274 744.208 236.714 744.208V745.216ZM241.147 725.092C240.811 725.092 240.511 724.972 240.247 724.732C240.007 724.492 239.887 724.192 239.887 723.832C239.887 723.496 240.007 723.208 240.247 722.968C240.511 722.728 240.811 722.608 241.147 722.608C241.483 722.608 241.771 722.728 242.011 722.968C242.275 723.208 242.407 723.496 242.407 723.832C242.407 724.192 242.275 724.492 242.011 724.732C241.771 724.972 241.483 725.092 241.147 725.092ZM240.571 728.8H241.723V745H240.571V728.8ZM254.722 745.396C253.186 745.396 251.758 745.012 250.438 744.244C249.118 743.476 248.074 742.444 247.306 741.148C246.538 739.828 246.154 738.412 246.154 736.9C246.154 735.388 246.538 733.984 247.306 732.688C248.074 731.368 249.118 730.324 250.438 729.556C251.758 728.788 253.186 728.404 254.722 728.404C256.282 728.404 257.758 728.824 259.15 729.664C260.542 730.48 261.514 731.548 262.066 732.868V728.8H263.218V745H262.066V740.968C261.418 742.312 260.41 743.392 259.042 744.208C257.698 745 256.258 745.396 254.722 745.396ZM254.794 744.388C256.114 744.388 257.338 744.052 258.466 743.38C259.594 742.684 260.482 741.772 261.13 740.644C261.802 739.492 262.138 738.244 262.138 736.9C262.138 735.58 261.802 734.344 261.13 733.192C260.458 732.04 259.558 731.128 258.43 730.456C257.302 729.76 256.078 729.412 254.758 729.412C253.438 729.412 252.202 729.76 251.05 730.456C249.922 731.152 249.01 732.076 248.314 733.228C247.642 734.38 247.306 735.616 247.306 736.936C247.306 738.256 247.642 739.492 248.314 740.644C249.01 741.772 249.934 742.684 251.086 743.38C252.238 744.052 253.474 744.388 254.794 744.388ZM275.574 752.488C274.206 752.488 272.874 752.176 271.578 751.552C270.282 750.928 269.274 750.112 268.554 749.104V747.448C269.178 748.6 270.15 749.56 271.47 750.328C272.814 751.096 274.182 751.48 275.574 751.48C277.878 751.48 279.654 750.796 280.902 749.428C282.15 748.084 282.774 746.104 282.774 743.488V741.076C282.126 742.372 281.106 743.428 279.714 744.244C278.346 745.036 276.906 745.432 275.394 745.432C273.858 745.432 272.43 745.048 271.11 744.28C269.79 743.512 268.746 742.48 267.978 741.184C267.21 739.864 266.826 738.448 266.826 736.936C266.826 735.424 267.21 734.02 267.978 732.724C268.746 731.404 269.79 730.36 271.11 729.592C272.43 728.824 273.858 728.44 275.394 728.44C276.978 728.44 278.442 728.836 279.786 729.628C281.13 730.42 282.126 731.488 282.774 732.832V728.8H283.926V743.488C283.926 746.44 283.206 748.672 281.766 750.184C280.35 751.72 278.286 752.488 275.574 752.488ZM275.466 744.424C276.786 744.424 278.01 744.088 279.138 743.416C280.266 742.72 281.154 741.808 281.802 740.68C282.474 739.528 282.81 738.28 282.81 736.936C282.81 735.592 282.474 734.356 281.802 733.228C281.154 732.076 280.266 731.164 279.138 730.492C278.01 729.796 276.786 729.448 275.466 729.448C274.122 729.448 272.874 729.796 271.722 730.492C270.594 731.164 269.682 732.076 268.986 733.228C268.314 734.356 267.978 735.592 267.978 736.936C267.978 738.28 268.314 739.528 268.986 740.68C269.682 741.808 270.594 742.72 271.722 743.416C272.874 744.088 274.122 744.424 275.466 744.424ZM296.173 745.576C294.541 745.576 293.065 745.18 291.745 744.388C290.425 743.572 289.393 742.504 288.649 741.184C287.905 739.84 287.533 738.388 287.533 736.828C287.533 735.292 287.905 733.864 288.649 732.544C289.417 731.224 290.449 730.18 291.745 729.412C293.065 728.62 294.529 728.224 296.137 728.224C297.721 728.224 299.161 728.62 300.457 729.412C301.777 730.18 302.809 731.224 303.553 732.544C304.297 733.864 304.669 735.292 304.669 736.828C304.669 738.436 304.309 739.912 303.589 741.256C302.869 742.576 301.861 743.632 300.565 744.424C299.293 745.192 297.829 745.576 296.173 745.576ZM296.173 744.568C297.541 744.568 298.789 744.22 299.917 743.524C301.045 742.828 301.921 741.904 302.545 740.752C303.193 739.576 303.517 738.292 303.517 736.9C303.517 735.532 303.193 734.26 302.545 733.084C301.897 731.908 301.009 730.972 299.881 730.276C298.753 729.58 297.505 729.232 296.137 729.232C294.769 729.232 293.509 729.592 292.357 730.312C291.229 731.008 290.329 731.944 289.657 733.12C289.009 734.296 288.685 735.568 288.685 736.936C288.685 738.304 289.009 739.576 289.657 740.752C290.329 741.904 291.229 742.828 292.357 743.524C293.509 744.22 294.781 744.568 296.173 744.568ZM314.418 745.324C313.29 745.324 312.258 745.072 311.322 744.568C310.386 744.04 309.642 743.308 309.09 742.372C308.538 741.436 308.262 740.392 308.262 739.24V718H309.414V739.24C309.414 740.2 309.63 741.064 310.062 741.832C310.518 742.6 311.13 743.212 311.898 743.668C312.666 744.1 313.506 744.316 314.418 744.316V745.324ZM319.545 725.092C319.209 725.092 318.909 724.972 318.645 724.732C318.405 724.492 318.285 724.192 318.285 723.832C318.285 723.496 318.405 723.208 318.645 722.968C318.909 722.728 319.209 722.608 319.545 722.608C319.881 722.608 320.169 722.728 320.409 722.968C320.673 723.208 320.805 723.496 320.805 723.832C320.805 724.192 320.673 724.492 320.409 724.732C320.169 724.972 319.881 725.092 319.545 725.092ZM318.969 728.8H320.121V745H318.969V728.8ZM325.489 728.8H326.641V731.248C327.745 729.352 329.521 728.404 331.969 728.404C333.145 728.404 334.165 728.74 335.029 729.412C335.893 730.06 336.493 731.044 336.829 732.364C337.141 731.188 337.825 730.24 338.881 729.52C339.961 728.776 341.173 728.404 342.517 728.404C344.269 728.404 345.625 728.92 346.585 729.952C347.545 730.96 348.025 732.4 348.025 734.272V745H346.873V734.272C346.873 732.76 346.477 731.572 345.685 730.708C344.917 729.844 343.897 729.412 342.625 729.412C341.665 729.412 340.777 729.652 339.961 730.132C339.145 730.588 338.497 731.212 338.017 732.004C337.537 732.796 337.297 733.672 337.297 734.632V745H336.145V734.92C336.145 733.192 335.737 731.848 334.921 730.888C334.105 729.904 333.049 729.412 331.753 729.412C330.889 729.412 330.061 729.628 329.269 730.06C328.501 730.492 327.865 731.08 327.361 731.824C326.881 732.544 326.641 733.336 326.641 734.2V745H325.489V728.8ZM360.191 745.396C358.655 745.396 357.227 745.012 355.907 744.244C354.587 743.476 353.543 742.444 352.775 741.148C352.007 739.828 351.623 738.412 351.623 736.9C351.623 735.388 352.007 733.984 352.775 732.688C353.543 731.368 354.587 730.324 355.907 729.556C357.227 728.788 358.655 728.404 360.191 728.404C361.751 728.404 363.227 728.824 364.619 729.664C366.011 730.48 366.983 731.548 367.535 732.868V728.8H368.687V745H367.535V740.968C366.887 742.312 365.879 743.392 364.511 744.208C363.167 745 361.727 745.396 360.191 745.396ZM360.263 744.388C361.583 744.388 362.807 744.052 363.935 743.38C365.063 742.684 365.951 741.772 366.599 740.644C367.271 739.492 367.607 738.244 367.607 736.9C367.607 735.58 367.271 734.344 366.599 733.192C365.927 732.04 365.027 731.128 363.899 730.456C362.771 729.76 361.547 729.412 360.227 729.412C358.907 729.412 357.671 729.76 356.519 730.456C355.391 731.152 354.479 732.076 353.783 733.228C353.111 734.38 352.775 735.616 352.775 736.936C352.775 738.256 353.111 739.492 353.783 740.644C354.479 741.772 355.403 742.684 356.555 743.38C357.707 744.052 358.943 744.388 360.263 744.388ZM372.403 733.768H383.599V734.884H372.403V733.768ZM400.08 719.044H383.952V718H401.772L387.876 745H386.724L400.08 719.044ZM401.009 745.324C400.673 745.324 400.373 745.204 400.109 744.964C399.869 744.724 399.749 744.424 399.749 744.064C399.749 743.728 399.869 743.44 400.109 743.2C400.373 742.96 400.673 742.84 401.009 742.84C401.345 742.84 401.633 742.96 401.873 743.2C402.137 743.44 402.269 743.728 402.269 744.064C402.269 744.424 402.137 744.724 401.873 744.964C401.633 745.204 401.345 745.324 401.009 745.324ZM413.418 745.468C411.858 745.468 410.418 745.096 409.098 744.352C407.802 743.608 406.77 742.588 406.002 741.292C405.234 739.996 404.85 738.532 404.85 736.9C404.85 735.388 405.234 733.996 406.002 732.724C406.77 731.428 407.814 730.396 409.134 729.628C410.478 728.86 411.954 728.476 413.562 728.476C414.906 728.476 416.058 728.692 417.018 729.124C417.978 729.556 418.914 730.228 419.826 731.14V733.084C419.034 731.908 418.146 731.02 417.162 730.42C416.202 729.796 415.002 729.484 413.562 729.484C412.242 729.484 410.994 729.832 409.818 730.528C408.666 731.2 407.742 732.112 407.046 733.264C406.35 734.416 406.002 735.652 406.002 736.972C406.002 738.412 406.338 739.708 407.01 740.86C407.682 741.988 408.582 742.876 409.71 743.524C410.862 744.148 412.098 744.46 413.418 744.46C416.106 744.46 418.242 743.248 419.826 740.824V742.768C418.962 743.68 418.002 744.364 416.946 744.82C415.914 745.252 414.738 745.468 413.418 745.468ZM431.068 745.576C429.436 745.576 427.96 745.18 426.64 744.388C425.32 743.572 424.288 742.504 423.544 741.184C422.8 739.84 422.428 738.388 422.428 736.828C422.428 735.292 422.8 733.864 423.544 732.544C424.312 731.224 425.344 730.18 426.64 729.412C427.96 728.62 429.424 728.224 431.032 728.224C432.616 728.224 434.056 728.62 435.352 729.412C436.672 730.18 437.704 731.224 438.448 732.544C439.192 733.864 439.564 735.292 439.564 736.828C439.564 738.436 439.204 739.912 438.484 741.256C437.764 742.576 436.756 743.632 435.46 744.424C434.188 745.192 432.724 745.576 431.068 745.576ZM431.068 744.568C432.436 744.568 433.684 744.22 434.812 743.524C435.94 742.828 436.816 741.904 437.44 740.752C438.088 739.576 438.412 738.292 438.412 736.9C438.412 735.532 438.088 734.26 437.44 733.084C436.792 731.908 435.904 730.972 434.776 730.276C433.648 729.58 432.4 729.232 431.032 729.232C429.664 729.232 428.404 729.592 427.252 730.312C426.124 731.008 425.224 731.944 424.552 733.12C423.904 734.296 423.58 735.568 423.58 736.936C423.58 738.304 423.904 739.576 424.552 740.752C425.224 741.904 426.124 742.828 427.252 743.524C428.404 744.22 429.676 744.568 431.068 744.568ZM442.805 728.8H443.957V731.248C445.061 729.352 446.837 728.404 449.285 728.404C450.461 728.404 451.481 728.74 452.345 729.412C453.209 730.06 453.809 731.044 454.145 732.364C454.457 731.188 455.141 730.24 456.197 729.52C457.277 728.776 458.489 728.404 459.833 728.404C461.585 728.404 462.941 728.92 463.901 729.952C464.861 730.96 465.341 732.4 465.341 734.272V745H464.189V734.272C464.189 732.76 463.793 731.572 463.001 730.708C462.233 729.844 461.213 729.412 459.941 729.412C458.981 729.412 458.093 729.652 457.277 730.132C456.461 730.588 455.813 731.212 455.333 732.004C454.853 732.796 454.613 733.672 454.613 734.632V745H453.461V734.92C453.461 733.192 453.053 731.848 452.237 730.888C451.421 729.904 450.365 729.412 449.069 729.412C448.205 729.412 447.377 729.628 446.585 730.06C445.817 730.492 445.181 731.08 444.677 731.824C444.197 732.544 443.957 733.336 443.957 734.2V745H442.805V728.8Z" fill="white"/>
<g clip-path="url(#clip0_6_1865)">
<path d="M363.052 213.391C363.052 214.445 363.538 214.065 363.636 214.225C363.476 212.454 362.923 213.44 363.052 213.391Z" fill="white"/>
<path d="M360.451 196.253L360.716 196.523L359.756 194.109L360.451 196.253Z" fill="white"/>
<path d="M356.774 180.586C356.583 181.444 357.002 182.829 357.549 184.36C358.166 185.863 358.606 187.432 358.859 189.035L358.773 189.538L359.756 190.647C359.529 189.801 359.271 188.895 359 187.982C358.729 187.069 358.471 186.143 358.145 185.237C357.592 183.716 357.134 182.163 356.774 180.586Z" fill="white"/>
<path d="M355.624 171.799C355.501 172.412 354.653 170.157 356.27 173.736C356.233 173.54 356.233 173.478 356.215 173.362C356.079 173.031 355.882 172.584 355.624 171.799Z" fill="white"/>
<path d="M356.215 173.362C356.067 172.21 356.872 174.961 356.215 173.362V173.362Z" fill="white"/>
<path d="M352.925 166.107L354.155 168.056C354.155 167.541 353.343 165.672 353.786 166.297C352.654 164.232 352.679 164.765 352.925 166.107Z" fill="white"/>
<path d="M351.431 164.447C351.652 164.769 351.857 165.1 352.046 165.439C352.052 165.219 351.953 164.949 351.431 164.447Z" fill="white"/>
<path d="M353.331 167.59L352.058 165.439C352.058 165.801 351.824 165.948 352.617 166.438C352.298 166.364 352.728 166.701 353.331 167.59Z" fill="white"/>
<path d="M353.792 168.926C353.97 169.452 354.108 169.99 354.204 170.537C354.204 170.844 354.087 170.721 353.49 169.747C354.382 171.708 354.862 172.51 354.954 172.302C354.958 171.949 354.889 171.598 354.751 171.273C354.496 170.465 354.175 169.681 353.792 168.926Z" fill="white"/>
<path d="M355.643 180.083C355.741 180.635 355.846 181.18 355.901 181.744L356.577 183.037C356.363 182.454 356.203 181.853 356.098 181.242C355.938 180.561 355.753 179.992 355.643 180.083Z" fill="white"/>
<path d="M346.542 153.467C346.308 153.467 346.542 154.373 346.425 154.637C346.794 155.066 347.126 155.513 347.471 155.96C347.169 155.145 346.37 153.712 346.542 153.467Z" fill="white"/>
<path d="M346.425 154.637L344.814 152.695C345.976 154.6 346.321 154.864 346.425 154.637Z" fill="white"/>
<path d="M350.348 164.514L350.963 165.347L351.578 166.174L352.728 167.896C351.849 166.505 350.994 165.121 350.022 163.797L350.348 164.514Z" fill="white"/>
<path d="M341.125 145.519C341.531 145.814 341.912 146.132 342.312 146.426L341.309 145.581L340.258 144.778L341.125 145.519Z" fill="white"/>
<path d="M337.079 140.587C338.044 141.157 336.587 139.098 337.491 139.803C336.427 138.691 335.258 137.686 333.998 136.8C335.199 137.912 336.236 139.186 337.079 140.587Z" fill="white"/>
<path d="M332.154 135.458C332.707 135.906 333.322 136.329 333.998 136.8C333.42 136.305 332.803 135.856 332.154 135.458Z" fill="white"/>
<path d="M342.502 149.129C342.443 148.439 342.196 147.778 341.789 147.217L341.937 148.326L342.502 149.129Z" fill="white"/>
<path d="M341.943 148.363V148.326L340.713 146.58L341.943 148.363Z" fill="white"/>
<path d="M342.65 149.34L342.502 149.128C342.515 149.244 342.535 149.302 342.65 149.34Z" fill="white"/>
<path d="M347.735 158.565C346.745 157.437 344.968 154.992 346.044 157.75C346.874 158.467 346.253 156.886 347.735 158.565Z" fill="white"/>
<path d="M342.81 150.697C343.283 151.432 343.701 152.21 344.15 152.964C344.236 152.848 344.15 152.351 344.667 152.866C344.04 152.143 343.455 151.396 342.81 150.697Z" fill="white"/>
<path d="M341.918 149.741L342.81 150.697L342.275 149.876L341.918 149.741Z" fill="white"/>
<path d="M334.878 139.147C334.401 138.77 333.951 138.361 333.531 137.922L332.098 136.519C332.578 137.131 333.101 137.67 333.58 138.271C334.06 138.871 334.558 139.447 335.044 140.011C335.308 140.06 335.96 140.366 334.878 139.147Z" fill="white"/>
<path d="M338.404 143.573L338.21 143.387C338.275 143.541 338.346 143.657 338.404 143.573Z" fill="white"/>
<path d="M321.958 126.96L322.068 127.185H322.171L321.958 126.96Z" fill="white"/>
<path d="M335.136 140.268C335.61 140.953 336.209 141.543 336.901 142.009C336.286 141.396 335.671 140.74 335.056 140.011C334.927 139.987 334.878 140.005 335.136 140.268Z" fill="white"/>
<path d="M329.239 132.836C329.602 133.32 330.02 133.859 330.469 134.435C330.174 133.89 329.497 132.879 329.239 132.836Z" fill="white"/>
<path d="M338.087 142.995L338.21 143.111C338.05 142.75 338.05 142.817 338.087 142.995Z" fill="white"/>
<path d="M338.087 142.995C337.714 142.641 337.318 142.311 336.901 142.009C337.362 142.523 337.805 142.995 338.21 143.387C338.159 143.26 338.118 143.129 338.087 142.995Z" fill="white"/>
<path d="M316.584 126.997C316.812 126.868 317.568 127.162 318.478 127.738C318.98 128.057 319.459 128.412 319.911 128.798C320.383 129.238 320.819 129.716 321.215 130.226C323.336 131.574 323.182 129.325 322.063 127.162C321.86 127.291 321.768 127.389 319.53 126.016C320.145 126.733 323.551 130.183 321.608 129.08C320.813 128.542 320.073 127.926 319.401 127.242C319.099 126.792 318.768 126.363 318.411 125.955C318.786 126.629 317.796 126.127 316.713 125.612C315.631 125.097 314.438 124.625 314.488 125.189C315.367 125.661 316.191 126.206 317.039 126.727C316.996 126.88 316.013 126.39 316.584 126.997Z" fill="white"/>
<path d="M325.802 130.496L326.62 131.188C325.785 130.23 325.003 129.228 324.277 128.186C322.758 127.187 322.358 127.083 322.161 127.126C323.477 128.308 324.836 129.448 326.115 130.667L325.802 130.496Z" fill="white"/>
<path d="M330.106 134.552C329.165 134.288 327.111 132.714 327.862 134.196C328.44 134.723 328.839 135.073 329.128 135.324C329.341 135.501 329.572 135.655 329.817 135.783C330.318 135.994 330.782 136.282 331.194 136.635C327.585 133.057 332.424 137.487 330.087 134.619C330.85 135.281 331.489 135.918 332.098 136.519C331.483 135.808 330.954 135.109 330.444 134.435L330.499 134.546C330.61 134.754 330.629 134.834 330.499 134.625C330.469 134.605 330.44 134.583 330.413 134.558C330.314 134.583 330.211 134.583 330.112 134.558C329.171 133.418 330.051 134.294 330.413 134.558C330.444 134.558 330.493 134.558 330.512 134.558C329.897 133.945 329.245 133.412 328.587 132.861L326.632 131.2C327.345 132.003 328.372 132.885 330.106 134.552Z" fill="white"/>
<path d="M343.695 156.04C343.652 155.881 343.695 155.868 343.695 155.838C343.486 155.599 343.382 155.519 343.695 156.04Z" fill="white"/>
<path d="M342.853 154.141C343.348 154.531 343.756 155.019 344.052 155.574C344.47 156.518 343.83 155.703 343.714 155.838C344.224 156.359 345.362 157.762 344.396 155.721L344.144 155.464C343.209 153.669 342.342 151.108 342.595 151.365C342.502 152.298 342.59 153.24 342.853 154.141Z" fill="white"/>
<path d="M336.821 144.037C335.904 142.971 334.896 141.984 333.918 140.973L334.976 142.891L335.117 142.634C336.556 144.533 336.464 143.945 336.821 144.037Z" fill="white"/>
<path d="M321.756 126.445L322.543 126.384C321.762 126.035 320.919 125.771 320.12 125.447L321.756 126.445Z" fill="white"/>
<path d="M317.347 123.069L317.802 122.812C317.353 122.585 316.886 122.395 316.431 122.199L317.347 123.069Z" fill="white"/>
<path d="M155.997 269.113L156.711 270.069C156.491 269.737 156.253 269.417 155.997 269.113Z" fill="white"/>
<path d="M151.927 261.558L151.613 261.472C151.914 261.76 152.074 261.87 151.927 261.558Z" fill="white"/>
<path d="M188.999 117.536C187.222 118.149 185.094 118.658 185.586 118.995L186.355 119.129C187.175 118.503 188.062 117.969 188.999 117.536Z" fill="white"/>
<path d="M140.268 192.479L140.52 192.001L140.287 190.733C140.287 191.26 140.244 191.848 140.268 192.479Z" fill="white"/>
<path d="M142.218 194.115L141.474 196.315C141.765 195.597 142.013 194.862 142.218 194.115Z" fill="white"/>
<path d="M188.224 302.623C188.698 302.739 189.171 302.862 189.663 302.948C187.88 301.753 188.519 302.494 188.224 302.623Z" fill="white"/>
<path d="M265.259 101.838C263.986 101.495 262.695 101.225 261.391 101.029C263.248 101.556 264.699 102.2 265.259 101.838Z" fill="white"/>
<path d="M149.35 268.917C149.818 269.529 150.076 269.756 150.168 269.683C149.695 269.045 149.381 268.708 149.35 268.917Z" fill="white"/>
<path d="M256.841 100.613C257.117 100.686 257.388 100.735 257.665 100.803C258.91 100.774 260.155 100.837 261.391 100.993C259.92 100.54 258.367 100.41 256.841 100.613Z" fill="white"/>
<path d="M338.579 274.419C338.665 274.327 338.758 274.205 338.837 274.131C338.801 274.057 338.708 274.198 338.579 274.419Z" fill="white"/>
<path d="M361.417 229.285C361.386 229.794 361.281 230.621 361.189 231.405C361.316 230.705 361.392 229.997 361.417 229.285Z" fill="white"/>
<path d="M298.346 111.348C298.543 111.348 299.423 111.826 298.346 111.348V111.348Z" fill="white"/>
<path d="M302.46 115.79C302.208 115.735 302.005 115.716 301.925 115.79C302.098 115.73 302.287 115.73 302.46 115.79Z" fill="white"/>
<path d="M245.201 103.75H245.102C245.459 103.842 245.398 103.824 245.201 103.75Z" fill="white"/>
<path d="M299.822 112.359C299.459 112.095 299.029 111.813 298.549 111.531C298.752 111.679 299.133 111.936 299.822 112.359Z" fill="white"/>
<path d="M299.724 112.022L300.622 112.536C300.794 112.524 300.701 112.414 299.724 112.022Z" fill="white"/>
<path d="M296.852 110.698C297.467 110.968 298.033 111.25 298.568 111.532C298.371 111.403 298.297 111.335 298.365 111.348L296.852 110.698Z" fill="white"/>
<path d="M263.402 322.304H263.648C264.748 321.96 264.263 322.058 263.402 322.304Z" fill="white"/>
<path d="M169.466 140.66C169.505 140.615 169.511 140.583 169.544 140.544L169.408 140.653L169.466 140.66Z" fill="white"/>
<path d="M167.109 143.908C167.52 142.606 168.33 141.466 169.427 140.648C168.75 140.648 168.049 140.593 167.373 140.587L167.109 143.908Z" fill="white"/>
<path d="M168.265 285.587L166.789 283.136C168.197 284.159 169.248 285.158 169.783 285.587C170.318 286.016 170.368 285.936 169.783 284.729C169.408 284.931 168.769 284.533 167.994 283.828C167.08 282.973 166.233 282.049 165.461 281.065C164.606 280.011 163.751 278.963 163.001 278.222C162.251 277.48 161.697 276.996 161.304 277.143L160.517 275.44C160.812 275.875 160.941 275.887 161.23 276.322C159.797 272.964 158.703 274.821 156.354 270.771C155.61 269.325 155.284 268.204 155.997 269.068L153.833 266.145C153.581 265.685 153.569 265.465 153.661 265.489C153.753 265.514 153.968 265.765 154.214 266.225C153.28 264.65 152.443 263.014 151.552 261.408H151.613C150.823 260.549 150.086 259.642 149.406 258.694C149.043 257.315 149.861 259.264 149.904 258.847C149.369 257.971 148.797 257.107 148.28 256.213C148.28 255.545 148.563 255.771 148.981 256.396C149.542 257.213 150.016 258.086 150.396 259C150.501 258.469 150.485 257.921 150.35 257.396C150.215 256.871 149.964 256.383 149.615 255.967C148.601 254.399 147.917 252.642 147.604 250.802C147.985 251.678 148.434 252.53 148.834 253.394C148.874 252.321 148.728 251.25 148.403 250.226C148.036 248.888 147.739 247.532 147.512 246.164C147.456 246.948 148.176 252.744 146.725 249.767C146.459 248.475 145.988 247.234 145.329 246.09C145.888 245.9 145.28 244.252 144.646 242.193L145.446 242.132C145.2 241.45 144.876 240.798 144.48 240.19C144.161 239.809 143.879 239.398 143.638 238.964C143.121 236.391 143.589 235.741 144.001 235.037C143.386 230.913 143.552 238.07 142.531 233.199C142.451 232.328 142.347 231.526 142.211 230.748C142.076 229.969 141.99 229.216 141.836 228.444C141.547 226.894 141.092 225.276 140.736 223.199C140.822 220.748 141.252 223.591 141.406 222.696L140.619 220.576C140.619 220.043 140.797 220.209 140.902 220.288C140.557 218.45 140.096 220.184 139.801 217.292C139.371 216.912 139.598 215.411 139.924 213.579C140.117 212.615 140.257 211.642 140.342 210.662C140.418 209.697 140.374 208.725 140.213 207.77C140.502 206.906 140.662 208.224 140.988 207.973C140.852 205.522 140.816 204.462 140.742 203.512C140.668 202.562 140.668 201.71 140.459 199.639C140.772 198.524 141.074 197.409 141.473 196.312C140.447 198.708 140.324 195.43 140.244 192.477C139.807 193.322 139.42 194.045 139.211 194.542L139.438 192.225C139.493 191.453 139.635 190.694 139.727 189.928C139.979 189.407 140.139 189.928 140.287 190.73C140.287 190.412 140.287 190.118 140.287 189.866C140.938 188.322 141.184 189.254 141.35 190.479L140.508 191.98C140.779 193.206 141.123 194.321 141.609 194.174C141.574 193.673 141.59 193.17 141.658 192.673C141.732 192.985 141.818 193.194 141.916 193.071C142.015 192.948 141.916 192.458 141.916 191.68L143.005 190.865L142.722 190.547L143.65 187.74C143.951 186.809 144.351 185.902 144.689 184.983C144.769 183.917 144.806 182.863 144.855 181.791C144.905 180.718 145.052 179.634 145.194 178.47C145.267 177.888 145.347 177.281 145.446 176.632C145.544 175.982 145.71 175.369 145.87 174.701C146.03 174.034 146.227 173.329 146.436 172.594C146.649 171.814 146.906 171.047 147.204 170.296C147.094 172.128 148.047 171.074 148.662 171.466C147.911 172.14 147.536 173.402 147.131 174.855L146.516 177.171C146.318 178.003 146.065 178.822 145.759 179.622C146.423 177.931 146.632 178.433 146.608 178.905C146.989 176.871 147.586 174.891 148.102 172.876C148.366 173.053 148.594 172.796 148.865 172.312C149.135 171.828 149.479 171.154 149.934 170.474C149.117 170.78 149.406 169.646 149.99 168.127C150.137 167.747 150.297 167.336 150.469 166.901L151.041 165.676C151.387 164.967 151.694 164.241 151.964 163.501C152.406 163.556 152.505 164.285 151.011 166.969C151.918 165.989 152.456 164.727 152.535 163.397C152.611 162.072 153.155 160.817 154.073 159.855C153.704 160.511 153.458 160.835 153.458 161.191C153.893 160.082 154.452 159.026 155.124 158.041C155.782 157.067 156.391 156.479 156.262 156.994L155.862 157.606C156.569 156.577 157.436 155.266 158.322 153.856C159.207 152.447 160.265 151.032 161.144 149.653C162.023 148.275 162.927 147.067 163.499 146.063C164.071 145.058 164.465 144.384 164.397 144.114C164.682 144.631 164.859 145.2 164.92 145.787C165.922 142.791 166.998 139.727 168.301 136.743C168.406 137.932 172.022 137.239 169.531 140.573C169.986 140.187 170.491 139.758 171.075 139.169C171.659 138.581 172.304 137.828 173.098 136.872C172.421 137.325 170.724 137.356 171.468 136.522C172.318 136.143 173.14 135.705 173.928 135.211L174.887 134.598C175.482 134.21 176.098 133.854 176.732 133.532C175.68 134.182 175.76 132.258 177.267 131.02C177.174 131.376 178.294 131.964 177.882 132.534L179.247 130.444C179.702 129.752 180.206 129.096 180.692 128.416C179.855 129.305 181.251 129.409 182.297 129.059C182.014 129.102 182.832 128.447 183.828 127.724C184.824 127.001 186.078 126.192 186.552 125.769L184.707 126.676C186.261 125.695 187.596 124.406 188.63 122.889C189.069 122.268 189.557 121.682 190.087 121.137C190.847 120.366 191.72 119.715 192.676 119.207C192.246 119.783 192.19 121.505 194.631 120.304C194.816 119.997 195.099 119.489 195.492 118.851C195.946 118.083 196.453 117.348 197.011 116.652C197.693 115.786 198.432 114.967 199.225 114.201C200.085 113.353 201.05 112.618 202.096 112.013H203.117C204.193 111.364 205.269 110.69 206.388 110.108C205.478 110.99 203.8 112.7 202.004 114.397C201.094 115.212 200.221 116.155 199.372 116.964C198.524 117.773 197.731 118.521 197.079 119.121C199.01 118.472 197.798 119.28 200.455 117.896C201.568 117.748 199.262 119.121 198.493 119.562L201.641 118.092L202.428 117.724L203.234 117.399L204.845 116.737C204.531 116.425 205.663 115.69 206.813 114.967C207.962 114.244 209.18 113.643 208.928 113.374C206.64 114.513 204.47 115.892 202.281 117.166C201.961 116.86 202.711 115.886 204.125 114.715C204.942 114.049 205.816 113.456 206.739 112.945C207.816 112.369 208.934 111.871 210.084 111.456C211.387 111.296 209.709 113.178 209.918 113.392C210.646 112.868 211.44 112.441 212.279 112.124C213.045 111.766 213.85 111.499 214.677 111.327L212.832 112.418C214.041 112.096 215.192 111.589 216.245 110.917C217.467 110.238 218.832 109.856 220.23 109.801C220.962 109.69 221.704 109.659 222.443 109.71C223.212 109.71 223.839 109.71 223.882 109.464C221.853 108.968 220.722 106.241 221.816 105.267C222.031 105.267 223.612 105.114 225.303 105.01C225.721 105.01 226.151 104.955 226.569 104.942H227.799C228.379 104.941 228.958 104.974 229.533 105.041C231.55 105.433 227.006 107.277 228.74 107.608C228.74 107.375 229.748 106.922 230.166 106.756C231.396 106.756 229.791 107.528 232.362 106.964C232.675 106.076 237.699 106.352 233.499 106.107C234.386 105.895 235.293 105.778 236.205 105.757C236.949 105.757 237.748 105.696 239.279 105.586C238.769 105.353 239.408 104.844 240.509 104.36C241.773 103.772 243.118 103.378 244.5 103.19C244.352 103.411 244.955 103.668 245.244 103.803C246.59 103.803 247.777 103.803 248.878 103.803C249.978 103.803 250.999 103.95 252.008 104.023L255.082 104.256C256.134 104.373 257.24 104.483 258.483 104.581C258.931 104.808 261.293 105.255 260.241 105.518C261.208 105.356 262.193 105.327 263.168 105.433C266.015 106.523 259.774 105.12 261.938 106.26C262.178 105.825 265.947 106.027 268.136 106.18C267.86 105.896 267.497 105.713 267.103 105.659C266.472 105.495 265.825 105.398 265.173 105.371C263.715 105.286 262.061 105.304 260.961 105.316C261.01 104.802 262.006 104.397 263.678 104.146C264.657 103.996 265.646 103.917 266.636 103.907C267.755 103.907 268.997 103.981 270.326 104.097C272.428 104.324 272.828 104.655 272.816 104.82C272.804 104.985 272.355 105.096 272.724 105.108C274.174 105.493 275.652 105.766 277.145 105.923C278.044 106.044 278.949 106.11 279.856 106.119C280.682 106.126 281.505 106.206 282.316 106.358C283.515 106.648 284.678 107.069 285.784 107.614C288.047 109.072 285.458 108.888 285.852 109.526C284.505 109.165 283.192 108.687 281.929 108.098C280.904 107.635 279.85 107.238 278.774 106.909L281.418 107.963C279.887 107.811 278.383 107.452 276.948 106.897C277.873 107.353 278.838 107.722 279.832 108L282.095 108.723L284.665 109.611C285.557 109.93 286.51 110.224 287.401 110.573L290.101 111.676C290.98 112.056 291.853 112.387 292.634 112.798C293.415 113.208 294.159 113.588 294.811 113.956C295.875 114.195 297.664 114.746 296.981 114.152L295.204 113.478C293.815 112.252 298.808 114.299 296.699 113.073C298.055 113.448 299.391 113.892 300.702 114.403C301.409 114.679 302.14 114.985 302.884 115.347C303.652 115.763 304.397 116.219 305.116 116.713L305.332 117.706C305.381 117.479 303.487 116.131 302.485 115.825C303.229 116.051 304.329 116.976 305.455 117.822C305.999 118.241 306.57 118.624 307.164 118.968C307.628 119.28 308.163 119.472 308.72 119.525C308.105 118.913 307.49 118.3 306.814 117.742C307.428 117.975 308.08 118.245 308.757 118.527C309.433 118.809 310.134 119.109 310.841 119.433C311.571 119.758 312.282 120.124 312.969 120.53C313.662 120.955 314.325 121.426 314.955 121.94C314.168 120.475 314.303 121.572 312.876 119.525C313.983 121.498 305.817 114.973 307.957 117.687C307.253 116.783 306.391 116.012 305.412 115.414C304.304 114.688 303.248 113.888 302.251 113.018C302.251 113.282 303.02 113.943 300.622 112.577C300.415 112.568 300.209 112.541 300.007 112.497L299.847 112.399L299.97 112.491C299.847 112.491 299.834 112.491 300.019 112.528C300.416 112.789 300.771 113.109 301.07 113.478C299.896 113.228 298.751 112.852 297.658 112.356C296.305 111.854 294.952 111.321 294.22 111.131C292.794 110.359 294.952 111.131 294.22 110.518L293.132 110.273L292.025 110.071C292.025 109.458 288.336 107.62 292.025 108.748L288.859 107.485C287.854 106.937 286.807 106.468 285.729 106.082C284.735 105.684 283.706 105.382 282.654 105.181C281.105 104.618 278.504 104.636 279.992 104.612C279.1 104.422 278.215 104.219 277.323 104.048L274.636 103.601V103.454C272.041 102.761 269.262 102.577 266.439 102.173C263.49 101.917 260.561 101.467 257.671 100.825C256.767 100.825 255.826 100.825 254.775 100.825C253.723 100.825 252.487 100.825 250.981 100.69L250.397 100.2C249.234 100.2 247.488 100.2 245.902 100.133C244.315 100.065 242.895 100.077 242.415 100.39C241.47 100.083 240.476 99.95 239.482 99.9978C238.867 99.9978 238.179 100.028 237.465 100.077C236.752 100.126 236.014 100.255 235.264 100.359C233.757 100.598 232.189 100.807 230.788 101.101C229.386 101.395 228.076 101.646 227.055 101.769L227.018 102.381L225.985 102.565L224.964 102.816C224.282 102.988 223.593 103.172 222.886 103.374L220.709 103.987C219.959 104.232 219.184 104.526 218.367 104.82L218.717 105.292C217.346 105.904 215.458 106.297 213.398 106.879L210.152 107.779C209.045 108.123 207.938 108.527 206.837 109.005C207.059 108.686 208.202 108.3 209.039 108.11C207.599 108.36 206.192 108.771 204.845 109.336C203.498 109.948 202.207 110.665 200.928 111.382C199.649 112.099 198.468 112.865 197.239 113.533C196.053 114.195 194.82 114.768 193.549 115.249C192.742 115.905 191.832 116.424 190.856 116.787C190.948 116.734 191.035 116.673 191.114 116.603C190.997 116.658 190.831 116.756 190.659 116.854C190.112 117.05 189.565 117.264 188.987 117.534C189.509 117.362 189.995 117.166 190.413 117.001C189.299 117.705 188.224 118.468 187.191 119.286L186.343 119.127L186.066 119.329C184.725 119.942 185.248 120.181 186.14 120.138C185.632 120.556 185.165 121.019 184.744 121.523C184 121.468 183.262 122.093 182.481 122.748C182.094 123.08 181.683 123.383 181.251 123.655C180.859 123.927 180.408 124.101 179.935 124.164C179.696 124.666 178.306 125.873 176.984 127.111C175.662 128.349 174.524 129.752 174.58 130.395C174.45 130.322 174.088 130.554 174.672 130.04C173.364 130.909 172.21 131.99 171.259 133.238L170.238 133.171L169.31 134.752L168.449 136.375C166.647 137.601 165.823 138.079 166.881 136.13C166.149 137.221 165.614 137.968 165.202 138.538C164.79 139.108 164.508 139.531 164.231 139.911C163.434 140.994 162.718 142.135 162.091 143.324L161.845 142.846C160.886 144.071 159.859 146.449 158.955 146.945C157.894 147.933 156.936 149.025 156.096 150.205C155.801 150.591 155.481 150.989 155.186 151.43L154.27 152.803L152.29 155.829C149.695 160.119 147.02 165.174 144.855 169.162C145.876 168.654 145.28 169.53 144.585 170.657C143.89 171.785 143.128 173.164 143.589 173.525C143.078 173.887 142.433 174.996 142.697 173.525C142.525 174.076 142.347 174.591 142.168 175.069L141.689 176.442C141.375 177.306 141.074 178.071 140.785 178.801C140.172 180.206 139.86 181.723 139.869 183.255C139.395 183.672 139.66 182.164 139.34 182.563C139.328 183.223 139.175 183.872 138.891 184.468C138.565 184.873 138.805 183.739 138.86 182.992C138.602 183.906 138.413 184.838 138.294 185.78C138.244 186.341 138.279 186.907 138.399 187.458C138.472 187.755 138.608 188.032 138.798 188.271C138.988 188.509 139.227 188.705 139.5 188.843C139.075 189.714 138.761 190.634 138.565 191.582C138.466 192.399 138.501 193.227 138.67 194.033C138.208 194.781 137.636 196.086 138.055 193.2L137.575 195.406L137.243 197.017L136.979 198.763C136.677 201.061 136.48 203.193 136.905 203.316C136.701 204.195 136.639 205.101 136.72 206L136.517 208.212C136.468 208.824 136.462 209.308 136.437 209.805C136.394 210.816 136.364 211.796 136.364 213.597L136.517 212.599C137.397 214.026 136.726 215.576 136.911 218.475L136.813 218.395C136.701 219.511 136.675 220.633 136.733 221.753C136.758 222.224 136.813 222.692 136.899 223.156C136.984 223.607 137.034 224.064 137.046 224.522L137.102 227.837L137.643 227.414C138.313 227.647 138.307 229.093 138.258 230.962C138.208 232.831 138.307 235.11 138.872 236.93C138.872 236.458 138.928 235.986 138.952 235.521C139.321 236.501 139.241 237.972 139.075 239.522C138.909 241.072 138.657 242.635 138.897 243.67C138.897 244.136 138.516 243.014 138.282 242.408C139.051 247.922 139.217 242.91 140.508 246.807C140.33 247.653 139.186 246.194 139.949 248.86C140.016 249.564 140.975 251.384 142.002 253.474C142.556 254.503 143.128 255.6 143.595 256.678C143.835 257.217 144.044 257.75 144.21 258.271C144.395 258.753 144.547 259.246 144.665 259.748C144.616 258.86 144.573 257.989 145.575 259.625C145.937 260.379 146.245 261.157 146.497 261.954C146.645 262.395 146.792 262.848 146.946 263.302C147.1 263.755 147.297 264.209 147.469 264.668C148.2 266.47 148.957 268.24 150.094 269.117C150.199 269.484 150.199 269.644 150.137 269.699C150.469 270.152 150.888 270.753 151.367 271.42C151.847 272.088 152.302 272.824 152.843 273.491C153.613 274.577 154.502 275.574 155.493 276.463C155.327 277.186 155.85 278.197 156.625 279.355C157.51 280.639 158.501 281.846 159.588 282.964C160.695 284.128 161.716 285.268 162.448 286.126C163.179 286.984 163.536 287.639 163.167 287.964C163.942 288.816 164.68 289.692 165.479 290.513L167.89 292.964H167.631C168 293.374 168.345 293.742 168.664 294.079C168.984 294.416 169.322 294.692 169.611 294.955C170.226 295.476 170.724 295.88 171.185 296.217C171.923 296.755 172.712 297.219 173.54 297.602C174.223 298.356 173.54 298.007 173.417 298.019C175.723 300.249 176.99 301.499 178.337 302.406C179.007 302.872 179.677 303.288 180.483 303.748C181.456 304.303 182.458 304.809 183.483 305.261L183.582 306.076C184.215 306.419 184.809 306.83 185.353 307.302C186.158 307.951 187.197 308.717 188.427 309.599C189.042 310.028 189.657 310.488 190.272 310.941C190.887 311.395 191.637 311.793 192.344 312.21C193.051 312.626 193.783 313.031 194.508 313.435C195.234 313.798 195.979 314.122 196.741 314.403C196.654 314.434 196.482 314.477 195.997 314.324C199.299 315.665 202.951 317.853 206.315 319.44C207.151 319.832 207.962 320.2 208.737 320.524C209.125 320.684 209.5 320.837 209.863 320.972C210.225 321.106 210.588 321.198 210.932 321.29C212.304 321.646 213.441 321.75 214.222 321.431L215.372 321.676L216.534 321.866L218.846 322.24C213.121 320.439 219.971 321.56 217.702 320.537C218.858 320.811 219.977 321.223 221.035 321.762C221.822 322.154 221.97 322.448 220.556 322.13L220.15 321.903C218.797 322.822 227.301 324.048 227 324.709C232.763 325.831 238.588 326.606 244.444 327.032L248.749 327.258C250.188 327.289 251.614 327.258 253.053 327.258C253.766 327.258 254.48 327.258 255.193 327.258L257.314 327.136L259.423 327.007C260.124 326.964 260.825 326.915 261.52 326.817C261.059 326.572 260.604 326.339 260.149 326.07C261.44 325.965 262.719 325.788 264.004 325.653C265.044 325.733 265.462 326.174 262.695 326.486C263.669 326.572 264.65 326.432 265.56 326.076C266.191 325.913 266.781 325.623 267.294 325.224C272.711 324.611 265.376 326.627 267.017 326.358L269.249 325.892H268.727C269.6 325.549 270.061 325.279 270.707 325.022C271.108 324.869 271.519 324.742 271.937 324.642C272.428 324.489 273.043 324.336 273.855 324.158C275.952 323.858 275.042 324.452 275.86 324.299C275.86 324.36 276.155 324.329 277.089 324.035C278.682 323.649 280.262 323.202 281.855 322.81L279.764 322.669C280.76 322.203 281.867 321.903 282.427 321.695C282.986 321.486 282.999 321.376 281.812 321.296C283.558 321.407 287.961 320.114 292.025 318.429C293.058 318.049 294.042 317.571 294.983 317.148L297.602 315.953C299.164 315.206 300.333 314.599 300.837 314.458C301.452 313.999 302.067 313.57 302.731 313.159C303.395 312.749 304.01 312.295 304.686 311.879C306.033 311.039 307.508 310.255 309.07 309.256C308.209 309.63 307.336 309.256 310.054 307.626C310.054 308.123 310.355 308.239 310.897 308.062C311.645 307.805 312.357 307.451 313.012 307.008C313.836 306.499 314.746 305.911 315.631 305.408C316.068 305.163 316.504 304.937 316.916 304.753C317.275 304.569 317.652 304.424 318.042 304.318C316.892 304.722 318.657 303.276 320.268 301.904C320.941 301.352 321.559 300.736 322.112 300.065C322.432 299.637 322.346 299.489 321.497 299.863C323.6 298.227 322.02 300.231 323.809 299.195C324.351 298.583 324.959 298.056 325.537 297.455C326.115 296.855 326.73 296.26 327.382 295.666L329.331 293.865L331.293 291.959C331.957 291.316 332.652 290.678 333.31 289.998L335.271 287.909C336.61 286.481 337.859 284.97 339.01 283.387C338.911 283.16 337.835 284 338.622 282.474C339.784 281.628 340.842 280.691 341.955 279.772C342.229 279.252 342.398 278.684 342.453 278.099C342.53 277.778 342.668 277.475 342.859 277.205C343.174 276.75 343.546 276.339 343.966 275.979C343.591 276.218 343.043 276.592 343.548 275.654C348.202 269.527 351.67 262.364 354.431 254.999C357.192 247.634 359.289 240.024 361.521 232.433C360.728 234.455 360.943 233.045 361.208 231.458C360.925 232.482 360.685 231.354 360.359 231.514L361.183 228.34C361.441 227.273 361.761 226.213 361.964 225.135C361.607 224.522 361.724 222.758 361.841 221.073C361.916 220.299 361.934 219.521 361.896 218.744C361.929 218.28 361.819 217.816 361.583 217.415L361.669 219.48C361.244 218.095 360.728 219.038 360.125 220.239C359.523 221.44 358.803 222.911 358.231 222.69C358.408 223.541 358.408 224.419 358.231 225.27C358.059 226.213 357.733 227.231 357.438 228.333C357.284 228.867 357.137 229.418 357.002 229.982C356.866 230.545 356.756 231.115 356.633 231.697C356.382 232.906 356.322 234.146 356.454 235.374C356.03 236.385 356.245 234.393 355.876 234.908C356.19 236.225 355.913 237.708 355.077 240.355L355.028 240.018L354.727 241.397C354.616 241.838 354.487 242.255 354.37 242.665L353.681 244.987C353.252 246.395 352.751 247.779 352.181 249.136L351.357 251.182C351.08 251.887 350.742 252.591 350.379 253.345C349.684 254.852 348.959 256.537 347.95 258.461L348.75 258.112C348.281 259.059 347.723 259.96 347.083 260.802C346.991 263.136 349.297 256.035 349.377 258.216C348.643 258.997 348.042 259.894 347.6 260.869C346.954 262.095 346.161 263.516 345.429 264.938L344.876 265.998C344.685 266.341 344.476 266.666 344.261 266.99C343.867 267.634 343.486 268.216 343.123 268.767C342.398 269.827 341.758 270.605 341.229 270.759C339.674 273.167 342.262 270.403 340.695 272.824L339.975 273.265V274.012C339.582 274.623 339.082 275.159 338.499 275.593C338.087 275.899 337.78 275.991 337.632 275.936C337.927 275.587 338.315 274.833 338.579 274.423C337.573 275.515 336.679 276.706 335.911 277.977C335.342 278.9 334.709 279.783 334.017 280.617C334.632 279.937 335.277 279.269 335.892 278.583C335.333 279.392 334.724 280.189 334.109 281.034C333.494 281.88 332.879 282.707 332.172 283.485C330.782 285.078 329.411 286.763 327.868 288.295L325.654 290.642C324.892 291.389 324.135 292.137 323.404 292.878C321.965 294.398 320.464 295.752 319.155 297.167L319.77 297.002C319.259 297.523 318.823 297.964 318.423 298.331C318.023 298.699 317.66 298.975 317.341 299.226C316.726 299.728 316.203 300.059 315.68 300.402L313.891 301.579C313.153 302.063 312.231 302.706 310.958 303.681L311.112 303.491C310.004 304.635 308.741 305.621 307.361 306.419C308.548 305.28 304.477 307.522 306.07 306.082L305.215 306.738L304.495 307.24L303.475 307.982C303.135 308.227 302.816 308.499 302.522 308.797C302.343 308.999 302.226 309.177 301.956 309.495C301.504 310.028 301.003 310.518 300.462 310.96L299.386 311.003C298.844 311.505 298.574 311.824 298.082 312.228C297.262 312.846 296.375 313.37 295.438 313.791C297.676 312.357 293.28 314.005 295.745 312.326C294.321 312.729 292.933 313.25 291.595 313.882C290.42 314.409 289.406 314.9 288.52 315.371C287.712 315.817 286.866 316.192 285.993 316.493C285.199 316.741 284.362 316.825 283.534 316.738C282.304 317.822 283.706 317.528 285.261 317.056C286.817 316.585 288.453 315.831 287.721 316.297C288.471 316.223 287.961 316.676 287.008 317.234C285.91 317.8 284.761 318.261 283.577 318.613C282.55 318.95 281.554 318.864 280.164 318.827C279.358 318.81 278.553 318.851 277.753 318.95C277.286 319.005 276.782 319.084 276.235 319.201C275.687 319.317 275.079 319.397 274.427 319.556C274.95 319.44 274.962 319.342 275.484 319.225C274.477 319.34 273.488 319.579 272.539 319.936C272.041 320.089 271.525 320.249 270.977 320.365C270.395 320.464 269.803 320.505 269.213 320.488C267.983 321.48 266.058 321.008 265.818 322.038L270.658 320.947C269.305 321.315 268.026 321.897 266.489 322.418C264.65 323.005 262.731 323.301 260.801 323.294C261.638 322.902 262.511 322.59 263.408 322.363C262.742 322.336 262.075 322.404 261.428 322.565C260.77 322.736 260.088 322.79 259.411 322.724C259.485 322.467 259.897 322.326 260.512 322.166C261.127 322.007 261.951 321.891 262.854 321.762C263.758 321.633 264.742 321.511 265.677 321.333C266.536 321.154 267.376 320.894 268.186 320.555C267.442 320.469 266.089 320.929 265.068 321.168C264.047 321.407 263.377 321.492 264.047 320.88C263.076 321.676 261.748 321.799 260.247 321.909C258.56 321.858 256.876 322.093 255.267 322.602L255.47 321.989C254.558 322.259 253.616 322.416 252.666 322.454L254.547 321.652C251.633 322.363 248.896 321.29 246.105 321.505C249.038 321.578 249.37 321.744 249.271 321.97C249.173 322.197 248.656 322.503 249.886 322.681C249.127 322.792 248.36 322.841 247.593 322.828C247.066 322.828 246.54 322.793 246.019 322.724C245.337 322.624 244.673 322.43 244.045 322.148C243.363 321.842 242.658 321.59 241.936 321.394C240.52 321.085 239.079 320.907 237.631 320.861C238.72 320.898 241.702 321.529 239.968 321.676C239.205 321.554 238.314 321.431 237.508 321.217C236.835 321.051 236.175 320.833 235.535 320.567C230.197 320.016 236.272 321.266 233.954 321.333C232.233 320.426 231.298 321.211 228.906 321.033L228.998 320.451C228.248 320.267 227.664 320.144 227.19 320.071C226.836 319.991 226.476 319.936 226.114 319.906C225.788 319.863 225.457 319.93 225.173 320.095C224.786 320.31 224.466 320.531 221.804 319.685L224.263 319.415C223.31 319.256 222.345 319.14 221.404 318.95C221.65 318.784 221.896 318.631 222.142 318.453C220.938 318.352 219.745 318.147 218.576 317.841C218.084 317.706 217.604 317.547 217.063 317.363C216.522 317.179 215.938 316.915 215.218 316.627C215.772 317.24 214.505 317.522 211.898 316.627C210.262 315.665 213.054 316.499 209.438 315.169C209.948 315.131 210.46 315.156 210.963 315.243C211.265 315.309 211.558 315.409 211.836 315.543C212.187 315.7 212.519 315.895 212.826 316.125C213.054 316.002 213.761 316.051 213.995 315.929C212.224 314.967 209.346 314.091 208.042 313.613C208.51 313.802 208.96 314.029 209.389 314.293C208.473 314.072 207.544 313.876 206.64 313.637L204.003 312.81C203.289 312.246 204.003 312.369 204.703 312.498C204.175 312.289 203.701 312.173 203.172 312.02C202.523 311.858 201.893 311.63 201.291 311.34C201.906 311.095 201.998 310.641 204.23 311.389C202.533 310.862 200.903 310.163 199.243 309.55C198.912 309.197 198.555 308.869 198.173 308.57C197.749 308.202 197.466 307.853 197.798 307.957C196.327 307.048 194.775 306.277 193.162 305.653C192.301 305.231 191.409 304.79 190.542 304.305C189.663 303.846 188.838 303.289 188.083 302.645C187.615 302.511 187.171 302.304 186.767 302.032C186.035 301.481 185.34 300.923 184.652 300.36C183.963 299.796 183.336 299.177 182.647 298.589C181.958 298.001 181.233 297.425 180.464 296.842C179.663 296.196 178.823 295.599 177.949 295.053C177.531 294.294 177.076 293.577 176.719 292.786C174.131 290.599 178.404 295.887 174.069 292.216C172.514 290.93 172.366 290.544 172.514 290.323C172.661 290.102 173.073 290.09 172.673 289.502C171.548 288.783 170.462 288.004 169.421 287.168C168.086 286.033 166.953 284.682 166.069 283.173C166.936 283.969 167.465 284.772 168.265 285.587ZM146.743 249.852C146.928 250.22 147.247 250.753 147.493 251.28C147.767 251.685 147.919 252.159 147.93 252.646C147.514 252.394 147.204 252 147.057 251.537C146.921 251.09 146.878 250.539 146.749 249.852H146.743ZM142.789 186.594C142.731 187.481 142.482 188.344 142.058 189.125C142.199 188.255 142.445 187.406 142.789 186.594ZM286.208 106.94H286.11C284.37 106.125 284.985 106.401 286.208 106.928V106.94ZM289.849 108.539C290.254 108.607 290.254 108.539 290.131 108.38C289.406 108.269 288.703 108.039 288.053 107.7C288.56 108.141 289.183 108.428 289.849 108.527V108.539ZM276.204 323.956H275.417C277.071 323.429 276.634 323.686 276.204 323.956Z" fill="white"/>
<path d="M141.996 193.906C141.956 193.977 141.902 194.038 141.837 194.088C141.773 194.137 141.699 194.174 141.621 194.194C141.658 194.531 141.769 194.556 141.996 193.906Z" fill="white"/>
<path d="M187.954 302.555L188.058 302.635C188.112 302.652 188.17 302.652 188.224 302.635L187.954 302.555Z" fill="white"/>
<path d="M230.259 107.629C229.747 107.684 229.23 107.672 228.721 107.592C228.703 107.745 229.078 107.8 230.259 107.629Z" fill="white"/>
<path d="M309.206 116.966C308.468 116.531 307.687 116.17 306.924 115.79C307.618 116.147 308.252 116.608 308.806 117.156C308.831 116.973 308.535 116.544 309.206 116.966Z" fill="white"/>
<path d="M324.4 133.087C324.713 133.29 324.965 133.614 325.273 133.804L325.39 133.541C324.258 132.475 323.324 131.862 324.4 133.087Z" fill="white"/>
<path d="M310.134 119.889C310.085 120.153 310.411 120.459 310.946 120.814C311.21 120.986 311.53 121.176 311.874 121.372L312.95 122.046C312.864 121.985 312.778 121.93 312.698 121.862C313.104 121.727 312.895 121.433 312.372 121.066C311.654 120.623 310.906 120.23 310.134 119.889Z" fill="white"/>
<path d="M313.295 122.267C313.75 122.561 314.211 122.879 314.629 123.198C314.961 123.088 314.125 122.769 313.295 122.267Z" fill="white"/>
<path d="M294.645 110.128C295.364 110.594 295.389 109.761 295.739 110.128C296.305 110.037 294.934 109.626 293.974 109.448C293.495 109.35 293.107 109.338 293.126 109.448C293.589 109.761 294.103 109.991 294.645 110.128Z" fill="white"/>
<path d="M310.429 122.022L310.239 121.176L309.144 121.066L310.429 122.022Z" fill="white"/>
<path d="M298.74 114.773L301.157 116.188C301.157 116.084 301.513 116.188 301.919 116.348C300.388 115.545 298.765 114.583 298.74 114.773Z" fill="white"/>
<path d="M301.907 116.348C302.551 116.735 303.223 117.073 303.917 117.359C303.265 116.987 302.594 116.65 301.907 116.348Z" fill="white"/>
<path d="M307.127 120.134C306.918 119.957 306.715 119.767 306.512 119.589L304.846 118.578C305.59 119.099 306.389 119.57 307.127 120.134Z" fill="white"/>
<path d="M270.412 105.067L267.38 104.706C267.042 104.859 267.835 105.129 268.96 105.245C269.723 105.227 270.854 105.349 270.412 105.067Z" fill="white"/>
<path d="M278.94 108.823C278.507 108.63 278.116 108.353 277.79 108.008L277.501 108.719L278.94 108.823Z" fill="white"/>
<path d="M270.412 106.948C270.073 107.101 266.033 106.783 269.766 107.402C270.247 107.345 270.733 107.333 271.217 107.365C271.445 107.365 271.574 107.365 271.488 107.291C271.149 107.123 270.786 107.007 270.412 106.948Z" fill="white"/>
<path d="M225.309 106.464L226.053 106.281L225.69 105.086L225.309 106.464Z" fill="white"/>
<path d="M190.106 124.387C193.18 122.769 190.383 123.271 193.26 121.936C193.549 121.611 192.934 121.844 192.356 122.144C191.778 122.444 191.2 122.72 191.489 122.383C189.86 123.774 188.839 124.221 190.106 124.387Z" fill="white"/>
<path d="M191.489 122.364C191.748 122.144 192.024 121.899 192.301 121.623C192.012 121.849 191.741 122.097 191.489 122.364Z" fill="white"/>
<path d="M362.892 220.744C363.058 219.966 363.132 219.175 363.249 218.391L362.788 219.898C362.837 220.18 362.855 220.462 362.892 220.744Z" fill="white"/>
<path d="M362.111 216.191L362.923 215.646L362.241 214.225C362.306 214.883 362.263 215.547 362.111 216.191Z" fill="white"/>
<path d="M146.405 243.464L146.202 243.378C146.097 243.764 146.202 244.267 146.479 245.284L146.405 243.464Z" fill="white"/>
<path d="M158.143 271.11L157.873 270.663L157.793 271.87L158.143 271.11Z" fill="white"/>
<path d="M174.746 290.129C174.389 289.762 173.946 289.412 173.516 289.032C173.085 288.653 172.698 288.267 172.354 287.88C173.983 289.431 174.327 290.95 174.746 290.129Z" fill="white"/>
<path d="M196.782 197.924L178.56 215.383L196.782 233.252C196.782 246.808 196.782 246.808 178.56 246.808C160.96 246.808 160.96 246.808 160.96 233.252V197.924C160.96 181.493 160.96 181.493 178.56 181.493H260.352C282.095 181.493 282.095 181.493 282.095 197.924V233.252C282.095 246.808 282.095 246.808 260.352 246.808H241.302C221.424 246.808 221.424 246.808 221.424 254.407M232.398 197.924L210.242 233.252M246.686 197.924L263.873 215.383L246.686 233.252" stroke="white" stroke-width="0.5"/>
<path d="M293.778 187.955V207.469M309.249 250.731C294.363 248.749 293.778 239.167 293.778 226.984V207.469M335.591 250.731C320.705 248.749 320.12 239.167 320.12 226.984V187.955V175.978M293.778 207.469H309.249" stroke="white" stroke-width="0.5"/>
</g>
<defs>
<clipPath id="clip0_6_1865">
<rect width="227.273" height="227.273" fill="white" transform="translate(136.364 100)"/>
</clipPath>
</defs>
</svg>
