<svg width="370" height="371" viewBox="0 0 370 371" fill="none" xmlns="http://www.w3.org/2000/svg">
<g clip-path="url(#clip0_1_2)">
<path d="M368.66 185.06C368.66 186.78 369.45 186.16 369.61 186.42C369.35 183.53 368.45 185.14 368.66 185.06Z" fill="white"/>
<path d="M364.43 157.09L364.86 157.53L363.3 153.59L364.43 157.09Z" fill="white"/>
<path d="M358.45 131.52C358.14 132.92 358.82 135.18 359.71 137.68C360.714 140.132 361.429 142.693 361.84 145.31L361.7 146.13L363.3 147.94C362.93 146.56 362.51 145.08 362.07 143.59C361.63 142.1 361.21 140.59 360.68 139.11C359.779 136.629 359.035 134.094 358.45 131.52Z" fill="white"/>
<path d="M356.58 117.18C356.38 118.18 355 114.5 357.63 120.34C357.57 120.02 357.57 119.92 357.54 119.73C357.32 119.19 357 118.46 356.58 117.18Z" fill="white"/>
<path d="M357.54 119.73C357.3 117.85 358.61 122.34 357.54 119.73V119.73Z" fill="white"/>
<path d="M352.19 107.89L354.19 111.07C354.19 110.23 352.87 107.18 353.59 108.2C351.75 104.83 351.79 105.7 352.19 107.89Z" fill="white"/>
<path d="M349.76 105.18C350.12 105.707 350.453 106.247 350.76 106.8C350.77 106.44 350.61 106 349.76 105.18Z" fill="white"/>
<path d="M352.85 110.31L350.78 106.8C350.78 107.39 350.4 107.63 351.69 108.43C351.17 108.31 351.87 108.86 352.85 110.31Z" fill="white"/>
<path d="M353.6 112.49C353.89 113.348 354.114 114.227 354.27 115.12C354.27 115.62 354.08 115.42 353.11 113.83C354.56 117.03 355.34 118.34 355.49 118C355.497 117.423 355.384 116.851 355.16 116.32C354.746 115.003 354.224 113.722 353.6 112.49Z" fill="white"/>
<path d="M356.61 130.7C356.77 131.6 356.94 132.49 357.03 133.41L358.13 135.52C357.781 134.569 357.52 133.588 357.35 132.59C357.09 131.48 356.79 130.55 356.61 130.7Z" fill="white"/>
<path d="M341.81 87.26C341.43 87.26 341.81 88.74 341.62 89.17C342.22 89.87 342.76 90.6 343.32 91.33C342.83 90 341.53 87.66 341.81 87.26Z" fill="white"/>
<path d="M341.62 89.17L339 86C340.89 89.11 341.45 89.54 341.62 89.17Z" fill="white"/>
<path d="M348 105.29L349 106.65L350 108L351.87 110.81C350.44 108.54 349.05 106.28 347.47 104.12L348 105.29Z" fill="white"/>
<path d="M333 74.29C333.66 74.77 334.28 75.29 334.93 75.77L333.3 74.39L331.59 73.08L333 74.29Z" fill="white"/>
<path d="M326.42 66.24C327.99 67.17 325.62 63.81 327.09 64.96C325.36 63.1462 323.458 61.5052 321.41 60.06C323.363 61.8735 325.05 63.9541 326.42 66.24Z" fill="white"/>
<path d="M318.41 57.87C319.31 58.6 320.31 59.29 321.41 60.06C320.47 59.2513 319.467 58.519 318.41 57.87Z" fill="white"/>
<path d="M335.24 80.18C335.143 79.0542 334.742 77.9758 334.08 77.06L334.32 78.87L335.24 80.18Z" fill="white"/>
<path d="M334.33 78.93V78.87L332.33 76.02L334.33 78.93Z" fill="white"/>
<path d="M335.47 80.51L335.24 80.18C335.26 80.36 335.29 80.45 335.47 80.51Z" fill="white"/>
<path d="M343.75 95.58C342.14 93.74 339.25 89.75 341 94.25C342.35 95.42 341.34 92.84 343.75 95.58Z" fill="white"/>
<path d="M335.74 82.74C336.51 83.94 337.19 85.21 337.92 86.44C338.06 86.25 337.92 85.44 338.76 86.28C337.74 85.1 336.79 83.88 335.74 82.74Z" fill="white"/>
<path d="M334.29 81.18L335.74 82.74L334.87 81.4L334.29 81.18Z" fill="white"/>
<path d="M322.84 63.89C322.064 63.2753 321.332 62.607 320.65 61.89L318.32 59.6C319.1 60.6 319.95 61.48 320.73 62.46C321.51 63.44 322.32 64.38 323.11 65.3C323.54 65.38 324.6 65.88 322.84 63.89Z" fill="white"/>
<path d="M328.56 71.1L328.26 70.81C328.36 71.05 328.47 71.23 328.56 71.1Z" fill="white"/>
<path d="M301.83 44L302 44.35H302.16L301.83 44Z" fill="white"/>
<path d="M323.26 65.72C324.032 66.8367 325.005 67.7998 326.13 68.56C325.13 67.56 324.13 66.49 323.13 65.3C322.92 65.26 322.84 65.29 323.26 65.72Z" fill="white"/>
<path d="M313.67 53.59C314.26 54.38 314.94 55.26 315.67 56.2C315.19 55.31 314.09 53.66 313.67 53.59Z" fill="white"/>
<path d="M328.06 70.17L328.26 70.36C328 69.77 328 69.88 328.06 70.17Z" fill="white"/>
<path d="M328.06 70.17C327.453 69.5915 326.808 69.0537 326.13 68.56C326.88 69.4 327.6 70.17 328.26 70.81C328.176 70.6024 328.109 70.3883 328.06 70.17Z" fill="white"/>
<path d="M293.09 44.06C293.46 43.85 294.69 44.33 296.17 45.27C296.987 45.791 297.765 46.3691 298.5 47C299.268 47.7183 299.977 48.4975 300.62 49.33C304.07 51.53 303.82 47.86 302 44.33C301.67 44.54 301.52 44.7 297.88 42.46C298.88 43.63 304.42 49.26 301.26 47.46C299.967 46.5814 298.764 45.5765 297.67 44.46C297.179 43.7264 296.641 43.0249 296.06 42.36C296.67 43.46 295.06 42.64 293.3 41.8C291.54 40.96 289.6 40.19 289.68 41.11C291.11 41.88 292.45 42.77 293.83 43.62C293.76 43.87 292.16 43.07 293.09 44.06Z" fill="white"/>
<path d="M308.08 49.77L309.41 50.9C308.053 49.3364 306.781 47.7007 305.6 46C303.13 44.37 302.48 44.2 302.16 44.27C304.3 46.2 306.51 48.06 308.59 50.05L308.08 49.77Z" fill="white"/>
<path d="M315.08 56.39C313.55 55.96 310.21 53.39 311.43 55.81C312.37 56.67 313.02 57.24 313.49 57.65C313.835 57.9393 314.211 58.1907 314.61 58.4C315.424 58.744 316.18 59.213 316.85 59.79C310.98 53.95 318.85 61.18 315.05 56.5C316.29 57.58 317.33 58.62 318.32 59.6C317.32 58.44 316.46 57.3 315.63 56.2L315.72 56.38C315.9 56.72 315.93 56.85 315.72 56.51C315.67 56.4772 315.624 56.4404 315.58 56.4C315.419 56.4406 315.251 56.4406 315.09 56.4C313.56 54.54 314.99 55.97 315.58 56.4C315.63 56.4 315.71 56.4 315.74 56.4C314.74 55.4 313.68 54.53 312.61 53.63L309.43 50.92C310.59 52.23 312.26 53.67 315.08 56.39Z" fill="white"/>
<path d="M337.18 91.46C337.11 91.2 337.18 91.18 337.18 91.13C336.84 90.74 336.67 90.61 337.18 91.46Z" fill="white"/>
<path d="M335.81 88.36C336.615 88.9968 337.279 89.7935 337.76 90.7C338.44 92.24 337.4 90.91 337.21 91.13C338.04 91.98 339.89 94.27 338.32 90.94L337.91 90.52C336.39 87.59 334.98 83.41 335.39 83.83C335.24 85.353 335.382 86.8906 335.81 88.36Z" fill="white"/>
<path d="M326 71.87C324.51 70.13 322.87 68.52 321.28 66.87L323 70L323.23 69.58C325.57 72.68 325.42 71.72 326 71.87Z" fill="white"/>
<path d="M301.5 43.16L302.78 43.06C301.51 42.49 300.14 42.06 298.84 41.53L301.5 43.16Z" fill="white"/>
<path d="M294.33 37.65L295.07 37.23C294.34 36.86 293.58 36.55 292.84 36.23L294.33 37.65Z" fill="white"/>
<path d="M31.93 276L33.09 277.56C32.7336 277.018 32.3463 276.497 31.93 276Z" fill="white"/>
<path d="M25.31 263.67L24.8 263.53C25.29 264 25.55 264.18 25.31 263.67Z" fill="white"/>
<path d="M85.6 28.62C82.71 29.62 79.25 30.45 80.05 31L81.3 31.22C82.6336 30.1982 84.0756 29.3263 85.6 28.62Z" fill="white"/>
<path d="M6.34999 150.93L6.75999 150.15L6.37999 148.08C6.37999 148.94 6.30999 149.9 6.34999 150.93Z" fill="white"/>
<path d="M9.52 153.6L8.31 157.19C8.78368 156.018 9.18771 154.819 9.52 153.6Z" fill="white"/>
<path d="M84.34 330.69C85.11 330.88 85.88 331.08 86.68 331.22C83.78 329.27 84.82 330.48 84.34 330.69Z" fill="white"/>
<path d="M209.62 3.00001C207.55 2.44015 205.45 1.99943 203.33 1.68001C206.35 2.54001 208.71 3.59001 209.62 3.00001Z" fill="white"/>
<path d="M21.12 275.68C21.88 276.68 22.3 277.05 22.45 276.93C21.68 275.89 21.17 275.34 21.12 275.68Z" fill="white"/>
<path d="M195.93 0.999998C196.38 1.12 196.82 1.2 197.27 1.31C199.295 1.26317 201.32 1.36679 203.33 1.62C200.937 0.880752 198.412 0.669224 195.93 0.999998Z" fill="white"/>
<path d="M328.86 284.66C329 284.51 329.15 284.31 329.28 284.19C329.22 284.07 329.07 284.3 328.86 284.66Z" fill="white"/>
<path d="M366 211C365.95 211.83 365.78 213.18 365.63 214.46C365.836 213.317 365.96 212.161 366 211Z" fill="white"/>
<path d="M263.43 18.52C263.75 18.52 265.18 19.3 263.43 18.52V18.52Z" fill="white"/>
<path d="M270.12 25.77C269.71 25.68 269.38 25.65 269.25 25.77C269.532 25.6725 269.838 25.6725 270.12 25.77Z" fill="white"/>
<path d="M177 6.12001H176.84C177.42 6.27001 177.32 6.24001 177 6.12001Z" fill="white"/>
<path d="M265.83 20.17C265.24 19.74 264.54 19.28 263.76 18.82C264.09 19.06 264.71 19.48 265.83 20.17Z" fill="white"/>
<path d="M265.67 19.62L267.13 20.46C267.41 20.44 267.26 20.26 265.67 19.62Z" fill="white"/>
<path d="M261 17.46C262 17.9 262.92 18.36 263.79 18.82C263.47 18.61 263.35 18.5 263.46 18.52L261 17.46Z" fill="white"/>
<path d="M206.6 362.81H207C208.79 362.25 208 362.41 206.6 362.81Z" fill="white"/>
<path d="M53.83 66.35C53.89 66.28 53.9 66.23 53.95 66.17L53.74 66.34L53.83 66.35Z" fill="white"/>
<path d="M50 71.66C50.6683 69.5355 51.9871 67.6746 53.77 66.34C52.67 66.34 51.53 66.25 50.43 66.24L50 71.66Z" fill="white"/>
<path d="M51.88 302.89L49.48 298.89C51.77 300.56 53.48 302.19 54.35 302.89C55.22 303.59 55.3 303.46 54.35 301.49C53.74 301.82 52.7 301.17 51.44 300.02C49.9537 298.624 48.5764 297.116 47.32 295.51C45.93 293.79 44.54 292.08 43.32 290.87C42.1 289.66 41.2 288.87 40.56 289.11L39.28 286.33C39.76 287.04 39.97 287.06 40.44 287.77C38.11 282.29 36.33 285.32 32.51 278.71C31.3 276.35 30.77 274.52 31.93 275.93L28.41 271.16C28 270.41 27.98 270.05 28.13 270.09C28.28 270.13 28.63 270.54 29.03 271.29C27.51 268.72 26.15 266.05 24.7 263.43H24.8C23.5152 262.027 22.3163 260.548 21.21 259C20.62 256.75 21.95 259.93 22.02 259.25C21.15 257.82 20.22 256.41 19.38 254.95C19.38 253.86 19.84 254.23 20.52 255.25C21.4317 256.583 22.2025 258.008 22.82 259.5C22.9907 258.632 22.9653 257.738 22.7456 256.881C22.5258 256.025 22.1173 255.228 21.55 254.55C19.9013 251.99 18.7889 249.122 18.28 246.12C18.9 247.55 19.63 248.94 20.28 250.35C20.345 248.599 20.1082 246.85 19.58 245.18C18.983 242.996 18.4991 240.783 18.13 238.55C18.04 239.83 19.21 249.29 16.85 244.43C16.4174 242.322 15.6511 240.296 14.58 238.43C15.49 238.12 14.5 235.43 13.47 232.07L14.77 231.97C14.3703 230.856 13.8435 229.793 13.2 228.8C12.6815 228.178 12.2228 227.508 11.83 226.8C10.99 222.6 11.75 221.54 12.42 220.39C11.42 213.66 11.69 225.34 10.03 217.39C9.9 215.97 9.73 214.66 9.51 213.39C9.29 212.12 9.15 210.89 8.9 209.63C8.43 207.1 7.69 204.46 7.11 201.07C7.25 197.07 7.95 201.71 8.2 200.25L6.92 196.79C6.92 195.92 7.21 196.19 7.38 196.32C6.82 193.32 6.07 196.15 5.59 191.43C4.89 190.81 5.26 188.36 5.79 185.37C6.10401 183.797 6.33102 182.208 6.47 180.61C6.59306 179.034 6.52254 177.449 6.26 175.89C6.73 174.48 6.99 176.63 7.52 176.22C7.3 172.22 7.24 170.49 7.12 168.94C7 167.39 7 166 6.66 162.62C7.17 160.8 7.66 158.98 8.31 157.19C6.64 161.1 6.44 155.75 6.31 150.93C5.6 152.31 4.97 153.49 4.63 154.3L5 150.52C5.09 149.26 5.32 148.02 5.47 146.77C5.88 145.92 6.14 146.77 6.38 148.08C6.38 147.56 6.38 147.08 6.38 146.67C7.44 144.15 7.84 145.67 8.11 147.67L6.74 150.12C7.18 152.12 7.74 153.94 8.53 153.7C8.47297 152.883 8.49977 152.062 8.61 151.25C8.73 151.76 8.87 152.1 9.03 151.9C9.19 151.7 9.03 150.9 9.03 149.63L10.8 148.3L10.34 147.78L11.85 143.2C12.34 141.68 12.99 140.2 13.54 138.7C13.67 136.96 13.73 135.24 13.81 133.49C13.89 131.74 14.13 129.97 14.36 128.07C14.48 127.12 14.61 126.13 14.77 125.07C14.93 124.01 15.2 123.01 15.46 121.92C15.72 120.83 16.04 119.68 16.38 118.48C16.7273 117.208 17.1446 115.956 17.63 114.73C17.45 117.72 19 116 20 116.64C18.78 117.74 18.17 119.8 17.51 122.17L16.51 125.95C16.1887 127.309 15.7778 128.645 15.28 129.95C16.36 127.19 16.7 128.01 16.66 128.78C17.28 125.46 18.25 122.23 19.09 118.94C19.52 119.23 19.89 118.81 20.33 118.02C20.77 117.23 21.33 116.13 22.07 115.02C20.74 115.52 21.21 113.67 22.16 111.19C22.4 110.57 22.66 109.9 22.94 109.19L23.87 107.19C24.4315 106.034 24.9321 104.849 25.37 103.64C26.09 103.73 26.25 104.92 23.82 109.3C25.295 107.701 26.1712 105.641 26.3 103.47C26.4223 101.308 27.3083 99.2597 28.8 97.69C28.2 98.76 27.8 99.29 27.8 99.87C28.5084 98.0608 29.4174 96.3367 30.51 94.73C31.58 93.14 32.57 92.18 32.36 93.02L31.71 94.02C32.86 92.34 34.27 90.2 35.71 87.9C37.15 85.6 38.87 83.29 40.3 81.04C41.73 78.79 43.2 76.82 44.13 75.18C45.06 73.54 45.7 72.44 45.59 72C46.053 72.844 46.342 73.7723 46.44 74.73C48.07 69.84 49.82 64.84 51.94 59.97C52.11 61.91 57.99 60.78 53.94 66.22C54.68 65.59 55.5 64.89 56.45 63.93C57.4 62.97 58.45 61.74 59.74 60.18C58.64 60.92 55.88 60.97 57.09 59.61C58.4717 58.991 59.8083 58.2759 61.09 57.47L62.65 56.47C63.6177 55.836 64.6191 55.2551 65.65 54.73C63.94 55.79 64.07 52.65 66.52 50.63C66.37 51.21 68.19 52.17 67.52 53.1L69.74 49.69C70.48 48.56 71.3 47.49 72.09 46.38C70.73 47.83 73 48 74.7 47.43C74.24 47.5 75.57 46.43 77.19 45.25C78.81 44.07 80.85 42.75 81.62 42.06L78.62 43.54C81.1472 41.9383 83.3187 39.8349 85 37.36C85.7144 36.3465 86.5069 35.3903 87.37 34.5C88.6046 33.2416 90.0244 32.1794 91.58 31.35C90.88 32.29 90.79 35.1 94.76 33.14C95.06 32.64 95.52 31.81 96.16 30.77C96.8975 29.5165 97.7229 28.3168 98.63 27.18C99.7386 25.7672 100.941 24.4308 102.23 23.18C103.628 21.7959 105.198 20.5962 106.9 19.61H108.56C110.31 18.55 112.06 17.45 113.88 16.5C112.4 17.94 109.67 20.73 106.75 23.5C105.27 24.83 103.85 26.37 102.47 27.69C101.09 29.01 99.8 30.23 98.74 31.21C101.88 30.15 99.91 31.47 104.23 29.21C106.04 28.97 102.29 31.21 101.04 31.93L106.16 29.53L107.44 28.93L108.75 28.4L111.37 27.32C110.86 26.81 112.7 25.61 114.57 24.43C116.44 23.25 118.42 22.27 118.01 21.83C114.29 23.69 110.76 25.94 107.2 28.02C106.68 27.52 107.9 25.93 110.2 24.02C111.528 22.9317 112.95 21.9645 114.45 21.13C116.202 20.1897 118.02 19.3776 119.89 18.7C122.01 18.44 119.28 21.51 119.62 21.86C120.804 21.0045 122.095 20.3085 123.46 19.79C124.705 19.207 126.014 18.7707 127.36 18.49L124.36 20.27C126.325 19.7443 128.197 18.9179 129.91 17.82C131.897 16.7131 134.117 16.0896 136.39 16C137.581 15.8177 138.788 15.7674 139.99 15.85C141.24 15.85 142.26 15.85 142.33 15.45C139.03 14.64 137.19 10.19 138.97 8.6C139.32 8.6 141.89 8.35 144.64 8.18C145.32 8.18 146.02 8.09 146.7 8.07H148.7C149.642 8.06807 150.584 8.12149 151.52 8.23C154.8 8.87 147.41 11.88 150.23 12.42C150.23 12.04 151.87 11.3 152.55 11.03C154.55 11.03 151.94 12.29 156.12 11.37C156.63 9.92 164.8 10.37 157.97 9.97C159.412 9.62398 160.887 9.43289 162.37 9.4C163.58 9.4 164.88 9.3 167.37 9.12C166.54 8.74 167.58 7.91 169.37 7.12C171.425 6.16017 173.613 5.51624 175.86 5.21C175.62 5.57 176.6 5.99 177.07 6.21C179.26 6.21 181.19 6.21 182.98 6.21C184.77 6.21 186.43 6.45 188.07 6.57L193.07 6.95C194.78 7.14 196.58 7.32 198.6 7.48C199.33 7.85 203.17 8.58 201.46 9.01C203.033 8.74541 204.634 8.6983 206.22 8.87C210.85 10.65 200.7 8.36 204.22 10.22C204.61 9.51 210.74 9.84 214.3 10.09C213.851 9.62645 213.259 9.32712 212.62 9.24C211.593 8.97104 210.54 8.81347 209.48 8.77C207.11 8.63 204.42 8.66 202.63 8.68C202.71 7.84 204.33 7.18 207.05 6.77C208.642 6.52587 210.249 6.39554 211.86 6.38C213.68 6.38 215.7 6.5 217.86 6.69C221.28 7.06 221.93 7.6 221.91 7.87C221.89 8.14 221.16 8.32 221.76 8.34C224.119 8.9691 226.522 9.41378 228.95 9.67C230.412 9.86831 231.885 9.97518 233.36 9.99C234.702 10.0018 236.041 10.1323 237.36 10.38C239.31 10.853 241.201 11.5405 243 12.43C246.68 14.81 242.47 14.51 243.11 15.55C240.919 14.9616 238.784 14.1819 236.73 13.22C235.063 12.4651 233.349 11.8171 231.6 11.28L235.9 13C233.409 12.7518 230.963 12.1664 228.63 11.26C230.134 12.0041 231.704 12.6067 233.32 13.06L237 14.24L241.18 15.69C242.63 16.21 244.18 16.69 245.63 17.26L250.02 19.06C251.45 19.68 252.87 20.22 254.14 20.89C255.41 21.56 256.62 22.18 257.68 22.78C259.41 23.17 262.32 24.07 261.21 23.1L258.32 22C256.06 20 264.18 23.34 260.75 21.34C262.956 21.9517 265.129 22.6759 267.26 23.51C268.41 23.96 269.6 24.46 270.81 25.05C272.058 25.7291 273.27 26.4735 274.44 27.28L274.79 28.9C274.87 28.53 271.79 26.33 270.16 25.83C271.37 26.2 273.16 27.71 274.99 29.09C275.875 29.7735 276.803 30.3982 277.77 30.96C278.524 31.4695 279.394 31.7823 280.3 31.87C279.3 30.87 278.3 29.87 277.2 28.96C278.2 29.34 279.26 29.78 280.36 30.24C281.46 30.7 282.6 31.19 283.75 31.72C284.937 32.2488 286.092 32.8465 287.21 33.51C288.337 34.2038 289.416 34.9722 290.44 35.81C289.16 33.42 289.38 35.21 287.06 31.87C288.86 35.09 275.58 24.44 279.06 28.87C277.915 27.3935 276.513 26.1365 274.92 25.16C273.119 23.9756 271.402 22.6692 269.78 21.25C269.78 21.68 271.03 22.76 267.13 20.53C266.794 20.5148 266.459 20.4713 266.13 20.4L265.87 20.24L266.07 20.39C265.87 20.39 265.85 20.39 266.15 20.45C266.796 20.8761 267.373 21.3989 267.86 22C265.949 21.5918 264.089 20.9783 262.31 20.17C260.11 19.35 257.91 18.48 256.72 18.17C254.4 16.91 257.91 18.17 256.72 17.17L254.95 16.77L253.15 16.44C253.15 15.44 247.15 12.44 253.15 14.28L248 12.22C246.366 11.3253 244.664 10.5596 242.91 9.93C241.295 9.27992 239.62 8.78763 237.91 8.46C235.39 7.54 231.16 7.57 233.58 7.53C232.13 7.22 230.69 6.89 229.24 6.61L224.87 5.88V5.64C220.65 4.51 216.13 4.21 211.54 3.55C206.743 3.13275 201.979 2.3978 197.28 1.35C195.81 1.35 194.28 1.35 192.57 1.35C190.86 1.35 188.85 1.35 186.4 1.13L185.45 0.330004C183.56 0.330004 180.72 0.330004 178.14 0.220004C175.56 0.110004 173.25 0.130004 172.47 0.640004C170.932 0.13881 169.316 -0.0780624 167.7 3.79141e-06C166.7 3.79141e-06 165.58 0.0500038 164.42 0.130004C163.26 0.210004 162.06 0.420004 160.84 0.590004C158.39 0.980004 155.84 1.32 153.56 1.8C151.28 2.28 149.15 2.69 147.49 2.89L147.43 3.89L145.75 4.19L144.09 4.6C142.98 4.88 141.86 5.18 140.71 5.51L137.17 6.51C135.95 6.91 134.69 7.39 133.36 7.87L133.93 8.64C131.7 9.64 128.63 10.28 125.28 11.23L120 12.7C118.2 13.26 116.4 13.92 114.61 14.7C114.97 14.18 116.83 13.55 118.19 13.24C115.848 13.6468 113.56 14.3177 111.37 15.24C109.18 16.24 107.08 17.41 105 18.58C102.92 19.75 101 21 99 22.09C97.0717 23.1698 95.0662 24.1057 93 24.89C91.6871 25.9606 90.2074 26.8085 88.62 27.4C88.7698 27.3145 88.9106 27.214 89.04 27.1C88.85 27.19 88.58 27.35 88.3 27.51C87.41 27.83 86.52 28.18 85.58 28.62C86.43 28.34 87.22 28.02 87.9 27.75C86.0886 28.8998 84.3395 30.1449 82.66 31.48L81.28 31.22L80.83 31.55C78.65 32.55 79.5 32.94 80.95 32.87C80.1249 33.5514 79.365 34.308 78.68 35.13C77.47 35.04 76.27 36.06 75 37.13C74.3698 37.6708 73.7014 38.1654 73 38.61C72.3628 39.0529 71.6292 39.3374 70.86 39.44C70.47 40.26 68.21 42.23 66.06 44.25C63.91 46.27 62.06 48.56 62.15 49.61C61.94 49.49 61.35 49.87 62.3 49.03C60.1727 50.4493 58.2969 52.2136 56.75 54.25L55.09 54.14L53.58 56.72L52.18 59.37C49.25 61.37 47.91 62.15 49.63 58.97C48.44 60.75 47.57 61.97 46.9 62.9C46.23 63.83 45.77 64.52 45.32 65.14C44.0233 66.9077 42.8601 68.7695 41.84 70.71L41.44 69.93C39.88 71.93 38.21 75.81 36.74 76.62C35.015 78.2324 33.4571 80.0147 32.09 81.94C31.61 82.57 31.09 83.22 30.61 83.94L29.12 86.18L25.9 91.12C21.68 98.12 17.33 106.37 13.81 112.88C15.47 112.05 14.5 113.48 13.37 115.32C12.24 117.16 11 119.41 11.75 120C10.92 120.59 9.87 122.4 10.3 120C10.02 120.9 9.73 121.74 9.44 122.52L8.66 124.76C8.15 126.17 7.66 127.42 7.19 128.61C6.19375 130.904 5.6863 133.379 5.7 135.88C4.93 136.56 5.36 134.1 4.84 134.75C4.82159 135.827 4.57267 136.887 4.11 137.86C3.58 138.52 3.97 136.67 4.06 135.45C3.64074 136.942 3.33322 138.463 3.14 140C3.05809 140.917 3.11541 141.84 3.31 142.74C3.42833 143.223 3.64949 143.675 3.9584 144.065C4.26731 144.455 4.65669 144.774 5.1 145C4.40946 146.421 3.89885 147.923 3.58 149.47C3.41855 150.804 3.47597 152.155 3.75 153.47C3 154.69 2.07 156.82 2.75 152.11L1.97 155.71L1.43 158.34L1 161.19C0.51 164.94 0.19 168.42 0.88 168.62C0.548776 170.055 0.447515 171.533 0.58 173L0.25 176.61C0.17 177.61 0.16 178.4 0.12 179.21C0.05 180.86 0 182.46 0 185.4L0.25 183.77C1.68 186.1 0.59 188.63 0.89 193.36L0.73 193.23C0.549182 195.051 0.505725 196.883 0.6 198.71C0.640551 199.478 0.730739 200.243 0.87 201C1.00951 201.736 1.08977 202.481 1.11 203.23L1.2 208.64L2.08 207.95C3.17 208.33 3.16 210.69 3.08 213.74C3 216.79 3.16 220.51 4.08 223.48C4.08 222.71 4.17 221.94 4.21 221.18C4.81 222.78 4.68 225.18 4.41 227.71C4.14 230.24 3.73 232.79 4.12 234.48C4.12 235.24 3.5 233.41 3.12 232.42C4.37 241.42 4.64 233.24 6.74 239.6C6.45 240.98 4.59 238.6 5.83 242.95C5.94 244.1 7.5 247.07 9.17 250.48C10.07 252.16 11 253.95 11.76 255.71C12.15 256.59 12.49 257.46 12.76 258.31C13.0606 259.096 13.3078 259.901 13.5 260.72C13.42 259.27 13.35 257.85 14.98 260.52C15.5687 261.75 16.07 263.02 16.48 264.32C16.72 265.04 16.96 265.78 17.21 266.52C17.46 267.26 17.78 268 18.06 268.75C19.25 271.69 20.48 274.58 22.33 276.01C22.5 276.61 22.5 276.87 22.4 276.96C22.94 277.7 23.62 278.68 24.4 279.77C25.18 280.86 25.92 282.06 26.8 283.15C28.0522 284.922 29.4978 286.548 31.11 288C30.84 289.18 31.69 290.83 32.95 292.72C34.3895 294.814 36.0018 296.785 37.77 298.61C39.57 300.51 41.23 302.37 42.42 303.77C43.61 305.17 44.19 306.24 43.59 306.77C44.85 308.16 46.05 309.59 47.35 310.93L51.27 314.93H50.85C51.45 315.6 52.01 316.2 52.53 316.75C53.05 317.3 53.6 317.75 54.07 318.18C55.07 319.03 55.88 319.69 56.63 320.24C57.8296 321.117 59.1124 321.874 60.46 322.5C61.57 323.73 60.46 323.16 60.26 323.18C64.01 326.82 66.07 328.86 68.26 330.34C69.35 331.1 70.44 331.78 71.75 332.53C73.3332 333.437 74.962 334.261 76.63 335L76.79 336.33C77.8204 336.889 78.7862 337.56 79.67 338.33C80.98 339.39 82.67 340.64 84.67 342.08C85.67 342.78 86.67 343.53 87.67 344.27C88.67 345.01 89.89 345.66 91.04 346.34C92.19 347.02 93.38 347.68 94.56 348.34C95.74 348.933 96.9519 349.46 98.19 349.92C98.05 349.97 97.77 350.04 96.98 349.79C102.35 351.98 108.29 355.55 113.76 358.14C115.12 358.78 116.44 359.38 117.7 359.91C118.33 360.17 118.94 360.42 119.53 360.64C120.12 360.86 120.71 361.01 121.27 361.16C123.5 361.74 125.35 361.91 126.62 361.39L128.49 361.79L130.38 362.1L134.14 362.71C124.83 359.77 135.97 361.6 132.28 359.93C134.16 360.379 135.979 361.05 137.7 361.93C138.98 362.57 139.22 363.05 136.92 362.53L136.26 362.16C134.06 363.66 147.89 365.66 147.4 366.74C156.772 368.57 166.246 369.836 175.77 370.53L182.77 370.9C185.11 370.95 187.43 370.9 189.77 370.9C190.93 370.9 192.09 370.9 193.25 370.9L196.7 370.7L200.13 370.49C201.27 370.42 202.41 370.34 203.54 370.18C202.79 369.78 202.05 369.4 201.31 368.96C203.41 368.79 205.49 368.5 207.58 368.28C209.27 368.41 209.95 369.13 205.45 369.64C207.034 369.78 208.629 369.551 210.11 368.97C211.135 368.705 212.095 368.232 212.93 367.58C221.74 366.58 209.81 369.87 212.48 369.43L216.11 368.67H215.26C216.68 368.11 217.43 367.67 218.48 367.25C219.133 367.001 219.801 366.794 220.48 366.63C221.28 366.38 222.28 366.13 223.6 365.84C227.01 365.35 225.53 366.32 226.86 366.07C226.86 366.17 227.34 366.12 228.86 365.64C231.45 365.01 234.02 364.28 236.61 363.64L233.21 363.41C234.83 362.65 236.63 362.16 237.54 361.82C238.45 361.48 238.47 361.3 236.54 361.17C239.38 361.35 246.54 359.24 253.15 356.49C254.83 355.87 256.43 355.09 257.96 354.4L262.22 352.45C264.76 351.23 266.66 350.24 267.48 350.01C268.48 349.26 269.48 348.56 270.56 347.89C271.64 347.22 272.64 346.48 273.74 345.8C275.93 344.43 278.33 343.15 280.87 341.52C279.47 342.13 278.05 341.52 282.47 338.86C282.47 339.67 282.96 339.86 283.84 339.57C285.058 339.152 286.215 338.573 287.28 337.85C288.62 337.02 290.1 336.06 291.54 335.24C292.25 334.84 292.96 334.47 293.63 334.17C294.214 333.871 294.827 333.633 295.46 333.46C293.59 334.12 296.46 331.76 299.08 329.52C300.175 328.62 301.18 327.615 302.08 326.52C302.6 325.82 302.46 325.58 301.08 326.19C304.5 323.52 301.93 326.79 304.84 325.1C305.72 324.1 306.71 323.24 307.65 322.26C308.59 321.28 309.59 320.31 310.65 319.34L313.82 316.4L317.01 313.29C318.09 312.24 319.22 311.2 320.29 310.09L323.48 306.68C325.658 304.349 327.689 301.884 329.56 299.3C329.4 298.93 327.65 300.3 328.93 297.81C330.82 296.43 332.54 294.9 334.35 293.4C334.796 292.552 335.071 291.624 335.16 290.67C335.286 290.146 335.51 289.651 335.82 289.21C336.332 288.469 336.937 287.797 337.62 287.21C337.01 287.6 336.12 288.21 336.94 286.68C344.51 276.68 350.15 264.99 354.64 252.97C359.13 240.95 362.54 228.53 366.17 216.14C364.88 219.44 365.23 217.14 365.66 214.55C365.2 216.22 364.81 214.38 364.28 214.64L365.62 209.46C366.04 207.72 366.56 205.99 366.89 204.23C366.31 203.23 366.5 200.35 366.69 197.6C366.812 196.337 366.842 195.067 366.78 193.8C366.833 193.042 366.655 192.285 366.27 191.63L366.41 195C365.72 192.74 364.88 194.28 363.9 196.24C362.92 198.2 361.75 200.6 360.82 200.24C361.107 201.629 361.107 203.061 360.82 204.45C360.54 205.99 360.01 207.65 359.53 209.45C359.28 210.32 359.04 211.22 358.82 212.14C358.6 213.06 358.42 213.99 358.22 214.94C357.812 216.913 357.714 218.937 357.93 220.94C357.24 222.59 357.59 219.34 356.99 220.18C357.5 222.33 357.05 224.75 355.69 229.07L355.61 228.52L355.12 230.77C354.94 231.49 354.73 232.17 354.54 232.84L353.42 236.63C352.722 238.927 351.908 241.186 350.98 243.4L349.64 246.74C349.19 247.89 348.64 249.04 348.05 250.27C346.92 252.73 345.74 255.48 344.1 258.62L345.4 258.05C344.638 259.596 343.731 261.066 342.69 262.44C342.54 266.25 346.29 254.66 346.42 258.22C345.226 259.495 344.249 260.958 343.53 262.55C342.48 264.55 341.19 266.87 340 269.19L339.1 270.92C338.79 271.48 338.45 272.01 338.1 272.54C337.46 273.59 336.84 274.54 336.25 275.44C335.07 277.17 334.03 278.44 333.17 278.69C330.64 282.62 334.85 278.11 332.3 282.06L331.13 282.78V284C330.491 284.997 329.678 285.871 328.73 286.58C328.06 287.08 327.56 287.23 327.32 287.14C327.8 286.57 328.43 285.34 328.86 284.67C327.223 286.453 325.769 288.396 324.52 290.47C323.596 291.977 322.567 293.417 321.44 294.78C322.44 293.67 323.49 292.58 324.49 291.46C323.58 292.78 322.59 294.08 321.59 295.46C320.59 296.84 319.59 298.19 318.44 299.46C316.18 302.06 313.95 304.81 311.44 307.31L307.84 311.14C306.6 312.36 305.37 313.58 304.18 314.79C301.84 317.27 299.4 319.48 297.27 321.79L298.27 321.52C297.44 322.37 296.73 323.09 296.08 323.69C295.43 324.29 294.84 324.74 294.32 325.15C293.32 325.97 292.47 326.51 291.62 327.07L288.71 328.99C287.51 329.78 286.01 330.83 283.94 332.42L284.19 332.11C282.388 333.978 280.335 335.587 278.09 336.89C280.02 335.03 273.4 338.69 275.99 336.34L274.6 337.41L273.43 338.23L271.77 339.44C271.217 339.839 270.699 340.284 270.22 340.77C269.93 341.1 269.74 341.39 269.3 341.91C268.564 342.779 267.751 343.579 266.87 344.3L265.12 344.37C264.24 345.19 263.8 345.71 263 346.37C261.667 347.379 260.225 348.234 258.7 348.92C262.34 346.58 255.19 349.27 259.2 346.53C256.883 347.188 254.626 348.037 252.45 349.07C250.54 349.93 248.89 350.73 247.45 351.5C246.135 352.228 244.76 352.84 243.34 353.33C242.048 353.736 240.687 353.872 239.34 353.73C237.34 355.5 239.62 355.02 242.15 354.25C244.68 353.48 247.34 352.25 246.15 353.01C247.37 352.89 246.54 353.63 244.99 354.54C243.205 355.463 241.336 356.216 239.41 356.79C237.74 357.34 236.12 357.2 233.86 357.14C232.55 357.111 231.24 357.178 229.94 357.34C229.18 357.43 228.36 357.56 227.47 357.75C226.58 357.94 225.59 358.07 224.53 358.33C225.38 358.14 225.4 357.98 226.25 357.79C224.611 357.977 223.003 358.367 221.46 358.95C220.65 359.2 219.81 359.46 218.92 359.65C217.972 359.811 217.011 359.878 216.05 359.85C214.05 361.47 210.92 360.7 210.53 362.38L218.4 360.6C216.2 361.2 214.12 362.15 211.62 363C208.631 363.959 205.509 364.441 202.37 364.43C203.732 363.79 205.152 363.281 206.61 362.91C205.526 362.867 204.442 362.978 203.39 363.24C202.321 363.519 201.21 363.607 200.11 363.5C200.23 363.08 200.9 362.85 201.9 362.59C202.9 362.33 204.24 362.14 205.71 361.93C207.18 361.72 208.78 361.52 210.3 361.23C211.697 360.938 213.064 360.513 214.38 359.96C213.17 359.82 210.97 360.57 209.31 360.96C207.65 361.35 206.56 361.49 207.65 360.49C206.07 361.79 203.91 361.99 201.47 362.17C198.726 362.087 195.987 362.469 193.37 363.3L193.7 362.3C192.217 362.742 190.686 362.997 189.14 363.06L192.2 361.75C187.46 362.91 183.01 361.16 178.47 361.51C183.24 361.63 183.78 361.9 183.62 362.27C183.46 362.64 182.62 363.14 184.62 363.43C183.385 363.611 182.138 363.691 180.89 363.67C180.034 363.67 179.179 363.613 178.33 363.5C177.222 363.337 176.141 363.021 175.12 362.56C174.011 362.06 172.864 361.648 171.69 361.33C169.388 360.826 167.045 360.534 164.69 360.46C166.46 360.52 171.31 361.55 168.49 361.79C167.25 361.59 165.8 361.39 164.49 361.04C163.395 360.769 162.322 360.414 161.28 359.98C152.6 359.08 162.48 361.12 158.71 361.23C155.91 359.75 154.39 361.03 150.5 360.74L150.65 359.79C149.43 359.49 148.48 359.29 147.71 359.17C147.134 359.04 146.549 358.95 145.96 358.9C145.43 358.831 144.891 358.94 144.43 359.21C143.8 359.56 143.28 359.92 138.95 358.54L142.95 358.1C141.4 357.84 139.83 357.65 138.3 357.34C138.7 357.07 139.1 356.82 139.5 356.53C137.541 356.364 135.601 356.03 133.7 355.53C132.9 355.31 132.12 355.05 131.24 354.75C130.36 354.45 129.41 354.02 128.24 353.55C129.14 354.55 127.08 355.01 122.84 353.55C120.18 351.98 124.72 353.34 118.84 351.17C119.668 351.108 120.501 351.148 121.32 351.29C121.811 351.398 122.287 351.562 122.74 351.78C123.31 352.037 123.85 352.355 124.35 352.73C124.72 352.53 125.87 352.61 126.25 352.41C123.37 350.84 118.69 349.41 116.57 348.63C117.33 348.938 118.062 349.309 118.76 349.74C117.27 349.38 115.76 349.06 114.29 348.67L110 347.32C108.84 346.4 110 346.6 111.14 346.81C110.28 346.47 109.51 346.28 108.65 346.03C107.594 345.767 106.569 345.395 105.59 344.92C106.59 344.52 106.74 343.78 110.37 345C107.61 344.14 104.96 343 102.26 342C101.722 341.423 101.14 340.888 100.52 340.4C99.83 339.8 99.37 339.23 99.91 339.4C97.5182 337.916 94.9941 336.658 92.37 335.64C90.97 334.95 89.52 334.23 88.11 333.44C86.6793 332.689 85.3376 331.78 84.11 330.73C83.3487 330.511 82.6266 330.173 81.97 329.73C80.78 328.83 79.65 327.92 78.53 327C77.41 326.08 76.39 325.07 75.27 324.11C74.15 323.15 72.97 322.21 71.72 321.26C70.4164 320.206 69.0506 319.231 67.63 318.34C66.95 317.1 66.21 315.93 65.63 314.64C61.42 311.07 68.37 319.7 61.32 313.71C58.79 311.61 58.55 310.98 58.79 310.62C59.03 310.26 59.7 310.24 59.05 309.28C57.2193 308.106 55.4534 306.834 53.76 305.47C51.59 303.618 49.7475 301.414 48.31 298.95C49.72 300.25 50.58 301.56 51.88 302.89ZM16.88 244.57C17.18 245.17 17.7 246.04 18.1 246.9C18.5452 247.56 18.7916 248.334 18.81 249.13C18.1337 248.718 17.6293 248.075 17.39 247.32C17.17 246.59 17.1 245.69 16.89 244.57H16.88ZM10.45 141.33C10.3555 142.776 9.94955 144.185 9.26 145.46C9.49029 144.041 9.88981 142.654 10.45 141.33ZM243.69 11.33H243.53C240.7 10 241.7 10.45 243.69 11.31V11.33ZM249.61 13.94C250.27 14.05 250.27 13.94 250.07 13.68C248.89 13.4994 247.748 13.1243 246.69 12.57C247.514 13.2896 248.528 13.7581 249.61 13.92V13.94ZM227.42 365.51H226.14C228.83 364.65 228.12 365.07 227.42 365.51Z" fill="white"/>
<path d="M9.16 153.26C9.09443 153.375 9.00676 153.475 8.90206 153.556C8.79735 153.637 8.6777 153.696 8.55 153.73C8.61 154.28 8.79 154.32 9.16 153.26Z" fill="white"/>
<path d="M83.9 330.58L84.07 330.71C84.1579 330.738 84.2521 330.738 84.34 330.71L83.9 330.58Z" fill="white"/>
<path d="M152.7 12.45C151.868 12.5404 151.027 12.5202 150.2 12.39C150.17 12.64 150.78 12.73 152.7 12.45Z" fill="white"/>
<path d="M281.09 27.69C279.89 26.98 278.62 26.39 277.38 25.77C278.508 26.3527 279.54 27.1048 280.44 28C280.48 27.7 280 27 281.09 27.69Z" fill="white"/>
<path d="M305.8 54C306.31 54.33 306.72 54.86 307.22 55.17L307.41 54.74C305.57 53 304.05 52 305.8 54Z" fill="white"/>
<path d="M282.6 32.46C282.52 32.89 283.05 33.39 283.92 33.97C284.35 34.25 284.87 34.56 285.43 34.88L287.18 35.98C287.04 35.88 286.9 35.79 286.77 35.68C287.43 35.46 287.09 34.98 286.24 34.38C285.072 33.6581 283.856 33.0166 282.6 32.46Z" fill="white"/>
<path d="M287.74 36.34C288.48 36.82 289.23 37.34 289.91 37.86C290.45 37.68 289.09 37.16 287.74 36.34Z" fill="white"/>
<path d="M257.41 16.53C258.58 17.29 258.62 15.93 259.19 16.53C260.11 16.38 257.88 15.71 256.32 15.42C255.54 15.26 254.91 15.24 254.94 15.42C255.693 15.9298 256.529 16.3053 257.41 16.53Z" fill="white"/>
<path d="M283.08 35.94L282.77 34.56L280.99 34.38L283.08 35.94Z" fill="white"/>
<path d="M264.07 24.11L268 26.42C268 26.25 268.58 26.42 269.24 26.68C266.75 25.37 264.11 23.8 264.07 24.11Z" fill="white"/>
<path d="M269.22 26.68C270.267 27.3115 271.36 27.863 272.49 28.33C271.429 27.7235 270.338 27.1728 269.22 26.68Z" fill="white"/>
<path d="M277.71 32.86C277.37 32.57 277.04 32.26 276.71 31.97L274 30.32C275.21 31.17 276.51 31.94 277.71 32.86Z" fill="white"/>
<path d="M218 8.27001L213.07 7.68001C212.52 7.93001 213.81 8.37001 215.64 8.56001C216.88 8.53001 218.72 8.73001 218 8.27001Z" fill="white"/>
<path d="M231.87 14.4C231.165 14.0847 230.529 13.6326 230 13.07L229.53 14.23L231.87 14.4Z" fill="white"/>
<path d="M218 11.34C217.45 11.59 210.88 11.07 216.95 12.08C217.733 11.9875 218.523 11.9674 219.31 12.02C219.68 12.02 219.89 12.02 219.75 11.9C219.199 11.6246 218.609 11.4357 218 11.34Z" fill="white"/>
<path d="M144.65 10.55L145.86 10.25L145.27 8.3L144.65 10.55Z" fill="white"/>
<path d="M87.4 39.8C92.4 37.16 87.85 37.98 92.53 35.8C93 35.27 92 35.65 91.06 36.14C90.12 36.63 89.18 37.08 89.65 36.53C87 38.8 85.34 39.53 87.4 39.8Z" fill="white"/>
<path d="M89.65 36.5C90.07 36.14 90.52 35.74 90.97 35.29C90.5001 35.6595 90.0589 36.064 89.65 36.5Z" fill="white"/>
<path d="M368.4 197.06C368.67 195.79 368.79 194.5 368.98 193.22L368.23 195.68C368.31 196.14 368.34 196.6 368.4 197.06Z" fill="white"/>
<path d="M367.13 189.63L368.45 188.74L367.34 186.42C367.447 187.494 367.376 188.579 367.13 189.63Z" fill="white"/>
<path d="M16.33 234.14L16 234C15.83 234.63 16 235.45 16.45 237.11L16.33 234.14Z" fill="white"/>
<path d="M35.42 279.26L34.98 278.53L34.85 280.5L35.42 279.26Z" fill="white"/>
<path d="M62.42 310.3C61.84 309.7 61.12 309.13 60.42 308.51C59.72 307.89 59.09 307.26 58.53 306.63C61.18 309.16 61.74 311.64 62.42 310.3Z" fill="white"/>
<path d="M98.2581 159.817L68.6239 188.31L98.2581 217.473C98.2581 239.597 98.2581 239.597 68.6239 239.597C40 239.597 40 239.597 40 217.473V159.817C40 133 40 133 68.6239 133H201.641C237 133 237 133 237 159.817V217.473C237 239.597 237 239.597 201.641 239.597H170.66C138.332 239.597 138.332 239.597 138.332 252M156.179 159.817L120.147 217.473M179.415 159.817L207.366 188.31L179.415 217.473" stroke="white" stroke-width="4"/>
<path d="M256 143.547V175.395M281.16 246C256.952 242.765 256 227.127 256 207.243V175.395M324 246C299.792 242.765 298.84 227.127 298.84 207.243V143.547V124M256 175.395H281.16" stroke="white" stroke-width="4"/>
</g>
<defs>
<clipPath id="clip0_1_2">
<rect width="369.61" height="370.92" fill="white"/>
</clipPath>
</defs>
</svg>
